<svg width="20" height="20" viewBox="0 0 20 20" fill="none" xmlns="http://www.w3.org/2000/svg">
<g clip-path="url(#clip0_650_7)">
<mask id="mask0_650_7" style="mask-type:luminance" maskUnits="userSpaceOnUse" x="0" y="-1" width="20" height="21">
<path d="M0 -0.00781131L0 19.9922L20 19.9922L20 -0.00781131L0 -0.00781131Z" fill="white"/>
</mask>
<g mask="url(#mask0_650_7)">
<path d="M-80 0.287092C-60.575 0.0943892 -45.2944 0.0234892 -29.9941 -0.00100875L20.001 49.9902V30.502C20.0188 53.1611 20.0309 72.2976 19.6963 99.9922L-80 99.9922L-80 0.287092ZM20.001 19.9951V30.502C19.9982 26.9467 19.9959 23.3047 19.9941 19.5293C19.9977 19.6842 20.001 19.8394 20.001 19.9951ZM19.9932 19.4785C19.7191 8.67159 10.8739 -0.00490737 0.000971794 -0.00490737H-25.8525C-11.9315 -0.0200059 2.31487 -0.00370955 20 -0.00780654C19.9912 6.96439 19.9903 13.3948 19.9932 19.4785ZM-25.8525 -0.00490737C-27.2353 -0.00340438 -28.6148 -0.00320601 -29.9941 -0.00100875L-29.9971 -0.00490737H-25.8525Z" fill="#D9D9D9"/>
</g>
</g>
<defs>
<clipPath id="clip0_650_7">
<rect width="20" height="20" fill="white" transform="matrix(0 -1 1 0 0 19.9922)"/>
</clipPath>
</defs>
</svg>
