<svg width="177" height="40" viewBox="0 0 177 40" fill="none" xmlns="http://www.w3.org/2000/svg">
<path d="M50 31.167V15.1621H53.0168V28.4187H59.3237L59.1082 31.167H50Z" fill="white"/>
<path d="M78.208 31.167H74.9755L73.4402 26.9637H67.3796L65.8443 31.167H62.7197L68.7264 15.1621H72.2281L78.208 31.167ZM72.6322 24.5387L71.016 20.2007C70.8903 19.8594 70.7826 19.536 70.6928 19.2307C70.621 18.9253 70.5491 18.6289 70.4773 18.3415H70.3425C70.2708 18.6289 70.19 18.9253 70.1002 19.2307C70.0284 19.536 69.9296 19.8594 69.8038 20.2007L68.1338 24.5387H72.6322Z" fill="white"/>
<path d="M92.9933 15.1621L87.1481 31.167H83.6196L77.7744 15.1621H81.0337L84.8586 25.9128C84.9664 26.2542 85.0652 26.5954 85.1549 26.9367C85.2447 27.278 85.3254 27.5923 85.3974 27.8798H85.5051C85.5769 27.5923 85.6578 27.278 85.7475 26.9367C85.8373 26.5954 85.9361 26.2542 86.0438 25.9128L89.8956 15.1621H92.9933Z" fill="white"/>
<path d="M106.519 15.1621L106.277 17.8565H99.1389V21.7904H105.065V24.4309H99.1389V28.4726H106.654V31.167H96.1221V15.1621H106.519Z" fill="white"/>
<path d="M124.899 15.1621V31.167H122.259L115.498 21.7095C115.265 21.4042 115.049 21.0899 114.851 20.7665C114.654 20.4432 114.474 20.1378 114.313 19.8504H114.205V31.167H111.296V15.1621H114.259L120.697 24.1615C120.93 24.4848 121.146 24.8082 121.343 25.1315C121.559 25.4368 121.738 25.7332 121.881 26.0206H121.989V15.1621H124.899Z" fill="white"/>
<path d="M144.158 23.1645C144.158 24.7453 143.799 26.1373 143.08 27.3409C142.362 28.5444 141.339 29.4875 140.01 30.17C138.681 30.8347 137.101 31.167 135.27 31.167H129.855V15.1621H135.27C137.101 15.1621 138.681 15.5034 140.01 16.186C141.339 16.8506 142.362 17.7847 143.08 18.9882C143.799 20.1737 144.158 21.5659 144.158 23.1645ZM141.007 23.1645C141.007 22.0328 140.773 21.0629 140.306 20.2546C139.839 19.4462 139.175 18.8265 138.314 18.3954C137.451 17.9643 136.437 17.7487 135.27 17.7487H132.873V28.5803H135.27C136.455 28.5803 137.469 28.3648 138.314 27.9337C139.175 27.5026 139.839 26.8828 140.306 26.0745C140.773 25.2482 141.007 24.2782 141.007 23.1645Z" fill="white"/>
<path d="M158.921 15.1621L158.678 17.8565H151.54V21.7904H157.466V24.4309H151.54V28.4726H159.055V31.167H148.523V15.1621H158.921Z" fill="white"/>
<path d="M175.201 20.4162C175.201 21.5299 174.887 22.4729 174.258 23.2454C173.648 23.9998 172.875 24.5207 171.941 24.8082L176.251 31.167H172.723L168.952 25.5356H166.419V31.167H163.403V15.1621H168.737C170.083 15.1621 171.241 15.3687 172.211 15.7818C173.181 16.177 173.917 16.7698 174.42 17.5601C174.94 18.3325 175.201 19.2846 175.201 20.4162ZM172.13 20.4162C172.13 19.7696 171.978 19.2486 171.672 18.8535C171.384 18.4403 170.981 18.1439 170.46 17.9643C169.94 17.7667 169.329 17.6679 168.628 17.6679H166.419V23.1645H168.628C169.329 23.1645 169.94 23.0657 170.46 22.8682C170.981 22.6705 171.384 22.3742 171.672 21.979C171.978 21.5659 172.13 21.0449 172.13 20.4162Z" fill="white"/>
<circle cx="20" cy="20" r="20" fill="#7E54E2"/>
<path d="M19.0277 32.8919C16.9534 31.8722 15.5942 28.857 15.4813 25.8869C15.3684 22.9168 16.0671 20.9321 18.2433 19.4609C18.8964 19.0195 19.2853 18.1152 20.5384 18.4705C21.7914 18.8258 23.3128 20.3896 23.9605 22.969C24.6082 25.5485 24.0823 28.077 23.3754 29.7245C22.6685 31.372 21.102 33.9118 19.0277 32.8919Z" fill="white"/>
<path d="M14.9302 28.9534C14.312 26.9859 14.2877 24.6148 14.5938 23.6288C14.6371 23.5145 14.5938 23.4038 14.4638 23.3809C14.2034 23.3103 13.7813 23.2189 13.0869 23.1453C12.041 23.0345 9.66763 22.7183 8.54245 24.0422C7.41727 25.366 7.80815 26.5669 9.58223 29.8663C11.3563 33.1658 12.6359 34.1158 14.0585 34.1596C15.0115 34.189 16.0454 33.4973 16.6242 33.0375C16.8996 32.8187 16.9401 32.4296 16.7464 32.136C16.1993 31.307 15.1574 29.6767 14.9302 28.9534Z" fill="white"/>
<path d="M7.7154 19.9554C7.83159 21.2536 8.28401 22.3098 8.44749 22.6562C8.47865 22.7222 8.55952 22.746 8.62444 22.7126C8.93903 22.5507 9.87033 22.1359 11.2442 22.0828C12.9567 22.0166 13.9853 22.5747 14.663 22.5198C14.8722 22.5028 14.9598 21.852 14.8624 21.5164C14.765 21.1807 13.6177 19.6451 12.5605 18.6932C11.3465 17.6001 10.085 16.3499 9.00796 16.4846C7.93093 16.6194 7.57281 18.3623 7.7154 19.9554Z" fill="white"/>
<path d="M20.1253 17.3624C19.2406 17.4055 18.6773 17.6384 18.3074 18.0075C18.2312 18.0836 18.0728 18.0154 18.089 17.9088C18.3224 16.3786 18.6865 14.4755 19.8506 13.9555C21.4688 13.2325 22.1564 13.5217 23.7859 12.9037C25.3622 12.306 26.0227 13.4742 25.841 15.4669C25.7027 16.9843 24.7481 19.1154 24.1118 20.3593C24.0737 20.4336 23.9672 20.4308 23.9291 20.3565C23.0382 18.6167 21.2506 17.3077 20.1253 17.3624Z" fill="white"/>
<path d="M24.387 33.8961C23.9815 33.9334 23.1746 33.6905 22.8267 33.2638C22.6489 33.0457 22.6872 32.7361 22.8066 32.4812C23.1942 31.6544 24.0964 30.732 24.4229 29.9136C25.0811 28.2637 25.3034 26.8118 25.2029 25.883C25.0608 24.5703 25.9147 23.8557 27.746 23.0756C30.2367 22.0146 31.9235 24.4166 31.5556 25.7659C31.1414 27.2854 31.1003 28.9948 29.4613 30.9511C28.1838 32.4759 25.5799 33.7863 24.387 33.8961Z" fill="white"/>
<path d="M29.8858 19.1689C31.9293 19.2064 33.152 20.2258 31.291 22.5529C31.24 22.6166 31.1463 22.6286 31.0804 22.5805C30.4761 22.1392 29.4715 21.5829 28.0935 21.93C27.1098 22.1777 25.9342 22.8547 25.2025 23.6627C25.1652 23.7038 25.0947 23.683 25.0872 23.628C25.0446 23.3158 24.9266 22.5641 24.712 21.9985C24.6587 21.8578 24.6546 21.6996 24.7238 21.566C26.0124 19.078 28.6328 19.1458 29.8858 19.1689Z" fill="white"/>
<path d="M32.2864 14.1198C32.5219 15.9587 31.1979 17.1492 30.1418 17.4956C29.0857 17.842 27.5225 17.6424 27.4461 16.8433C27.3696 16.0442 28.9408 14.3802 29.576 12.9116C30.2112 11.443 32.0509 12.2809 32.2864 14.1198Z" fill="white"/>
</svg>
