<svg width="119" height="41" viewBox="0 0 119 41" fill="none" xmlns="http://www.w3.org/2000/svg">
<g clip-path="url(#clip0_34_767)">
<path d="M50.3066 16.6275C50.6735 16.4807 51.1138 16.2606 51.4807 16.1138C51.921 15.8937 52.2879 15.6735 52.7282 15.4534C53.5146 14.9954 54.2312 14.427 54.8562 13.7656H56.9843V27.6346H53.9757V17.5814C53.5607 17.869 53.1183 18.1148 52.6548 18.3152C52.1788 18.5423 51.6886 18.7384 51.1872 18.9023L50.3066 16.6275Z" fill="white"/>
<path d="M70.9994 20.5808C70.9994 22.929 70.5591 24.6901 69.6786 25.9376C69.2514 26.5072 68.6974 26.9695 68.0606 27.2879C67.4238 27.6064 66.7215 27.7721 66.0095 27.7721C65.2975 27.7721 64.5953 27.6064 63.9585 27.2879C63.3216 26.9695 62.7677 26.5072 62.3405 25.9376C61.4599 24.6901 61.0196 22.929 61.0196 20.5808C61.0152 19.5423 61.1384 18.5072 61.3866 17.4988C61.5935 16.6864 61.9412 15.9165 62.4139 15.224C62.8235 14.6285 63.3794 14.1483 64.0283 13.8298C64.6654 13.5053 65.368 13.3296 66.0829 13.3161C66.7998 13.2865 67.5124 13.4392 68.1541 13.76C68.7958 14.0809 69.3456 14.5594 69.752 15.1506C70.6325 16.3981 70.9994 18.306 70.9994 20.5808ZM67.9174 20.5808C67.9311 19.944 67.9066 19.3069 67.8441 18.6729C67.7961 18.1751 67.6977 17.6833 67.5505 17.2053C67.4342 16.8449 67.2328 16.5177 66.9635 16.2514C66.7034 16.0127 66.3625 15.8816 66.0095 15.8845C65.6591 15.895 65.3228 16.0244 65.0556 16.2514C64.7863 16.5177 64.5849 16.8449 64.4685 17.2053C64.2865 17.6738 64.1872 18.1704 64.175 18.6729C64.111 19.3067 64.0865 19.9439 64.1016 20.5808C64.0865 21.2177 64.111 21.8549 64.175 22.4887C64.2155 22.9877 64.314 23.4802 64.4685 23.9563C64.5849 24.3168 64.7863 24.644 65.0556 24.9103C65.3157 25.1489 65.6566 25.28 66.0095 25.2772C66.3599 25.2666 66.6963 25.1372 66.9635 24.9103C67.2328 24.644 67.4342 24.3168 67.5505 23.9563C67.6977 23.4783 67.7961 22.9866 67.8441 22.4887C67.9097 21.855 67.9342 21.2177 67.9174 20.5808Z" fill="white"/>
<path d="M82.5943 15.2332C82.7411 15.7469 82.9612 16.4073 83.108 17.0678C83.3281 17.7282 83.4749 18.462 83.695 19.1958L84.3554 21.3972C84.5756 22.131 84.7957 22.7915 85.0159 23.4519C85.1626 22.7915 85.3828 22.0576 85.5295 21.2505C85.6763 20.4433 85.8964 19.6361 86.0432 18.7555C86.19 17.8749 86.3367 17.0678 86.4835 16.1872C86.6302 15.3066 86.777 14.4994 86.9238 13.7656H90.1525C89.7122 16.1138 89.1252 18.462 88.5381 20.8102C87.9511 23.2317 87.2907 25.4332 86.5569 27.6346H83.695C83.2547 26.3871 82.7411 24.9929 82.3008 23.5986C81.8605 22.2044 81.4202 20.8102 80.9799 19.3426C80.5396 20.7368 80.0994 22.131 79.7325 23.5986C79.3656 25.0663 78.8519 26.3137 78.4116 27.6346H75.5498C74.816 25.5065 74.1555 23.2317 73.5685 20.8102C72.9814 18.3886 72.3944 16.0404 71.9541 13.7656H75.3296L75.7699 16.1872C75.9167 17.0678 76.0634 17.8749 76.2836 18.7555C76.4303 19.6361 76.6505 20.4433 76.7972 21.2505C76.94 21.9974 77.1362 22.733 77.3843 23.4519C77.6044 22.7915 77.8246 22.131 78.1181 21.3972L78.7785 19.1958C78.9986 18.462 79.2188 17.7282 79.3656 17.0678C79.5123 16.4073 79.7325 15.7469 79.8792 15.2332H82.5943Z" fill="white"/>
<path d="M90.8868 22.4194C90.8471 20.8795 91.3985 19.3828 92.4278 18.2367C92.8891 17.7864 93.4388 17.4366 94.0421 17.2094C94.6279 16.9821 95.2486 16.858 95.8767 16.8425C96.5295 16.8074 97.1823 16.9138 97.7902 17.1545C98.3982 17.3951 98.9469 17.7643 99.3989 18.2367C100.355 19.3548 100.83 20.8057 100.72 22.2726V22.8597C100.732 23.0582 100.707 23.2572 100.646 23.4467H93.8954C93.9297 23.7398 94.026 24.0222 94.1778 24.2753C94.3296 24.5283 94.5335 24.7461 94.7759 24.9143C95.3891 25.299 96.1086 25.4789 96.8306 25.428C97.3714 25.4155 97.9108 25.3665 98.445 25.2813C98.8984 25.2126 99.3419 25.0894 99.7658 24.9143L100.133 27.3359C99.9207 27.4316 99.6994 27.5054 99.4723 27.5561L98.5917 27.7762C98.2564 27.8661 97.9115 27.9154 97.5644 27.923C97.2009 27.9839 96.8321 28.0085 96.4637 27.9963C95.6114 28.0125 94.7641 27.863 93.9688 27.5561C93.3039 27.2963 92.7031 26.8958 92.2076 26.382C91.7393 25.878 91.3884 25.2766 91.1803 24.6208C90.9748 23.9054 90.8759 23.1636 90.8868 22.4194ZM97.8579 21.2453C97.8446 20.9949 97.7951 20.7478 97.7112 20.5115C97.6174 20.2767 97.4942 20.0547 97.3443 19.8511C97.2024 19.6437 96.996 19.4889 96.7572 19.4108C96.4838 19.2787 96.1782 19.2278 95.8767 19.264C95.5777 19.271 95.2812 19.3204 94.9961 19.4108C94.7876 19.5396 94.5911 19.6869 94.409 19.8511C94.2443 20.0448 94.1196 20.2693 94.0421 20.5115C93.9688 20.805 93.8954 21.0252 93.822 21.2453H97.8579Z" fill="white"/>
<path d="M112.827 22.3467C112.824 23.1195 112.701 23.8871 112.46 24.6215C112.237 25.2869 111.86 25.8903 111.359 26.3826C110.894 26.8807 110.315 27.2584 109.672 27.4833C108.913 27.7295 108.121 27.8534 107.323 27.8502C106.955 27.8624 106.586 27.8378 106.223 27.7769C105.856 27.7035 105.415 27.7035 105.049 27.6301L103.948 27.4099C103.581 27.3366 103.287 27.2632 102.994 27.1898V12.5137L106.003 12V17.21C106.69 16.8798 107.441 16.7044 108.204 16.6964C108.881 16.6979 109.552 16.8222 110.185 17.0633C110.733 17.3454 111.229 17.7175 111.653 18.164C112.047 18.695 112.345 19.2911 112.533 19.9251C112.744 20.7147 112.842 21.5298 112.827 22.3467ZM109.818 22.2733C109.818 20.3654 109.085 19.4115 107.69 19.4115C107.392 19.4245 107.096 19.4738 106.81 19.5582C106.549 19.611 106.301 19.7104 106.076 19.8517V25.2819C106.223 25.2819 106.443 25.3553 106.663 25.3553H107.397C107.744 25.3698 108.09 25.3045 108.408 25.1646C108.726 25.0247 109.007 24.8138 109.231 24.5481C109.622 23.8542 109.825 23.0699 109.818 22.2733Z" fill="white"/>
<path d="M6.96895 13.6063L20.3208 0.254463C20.4869 0.0913739 20.7103 0 20.9431 0C21.1759 0 21.3993 0.0913739 21.5654 0.254463L40.8011 19.6033C40.9642 19.7694 41.0556 19.9928 41.0556 20.2256C41.0556 20.4584 40.9642 20.6819 40.8011 20.8479L40.6879 20.9611C39.9206 21.7223 38.8835 22.1494 37.8026 22.1494C36.7217 22.1494 35.6846 21.7223 34.9172 20.9611L21.3391 7.38297C21.173 7.21988 20.9496 7.12851 20.7168 7.12851C20.484 7.12851 20.2606 7.21988 20.0945 7.38297L12.5134 14.9641C11.746 15.7253 10.7089 16.1524 9.628 16.1524C8.54713 16.1524 7.51005 15.7253 6.74265 14.9641C6.66446 14.7368 6.64421 14.4936 6.68372 14.2565C6.72324 14.0194 6.82128 13.7959 6.96895 13.6063Z" fill="white"/>
<path d="M35.0308 26.3909L21.679 39.7427C21.5129 39.9058 21.2894 39.9972 21.0567 39.9972C20.8239 39.9972 20.6004 39.9058 20.4343 39.7427L1.08552 20.3939C0.922429 20.2278 0.831055 20.0043 0.831055 19.7716C0.831055 19.5388 0.922429 19.3153 1.08552 19.1492C1.85291 18.388 2.89 17.9609 3.97087 17.9609C5.05174 17.9609 6.08882 18.388 6.85622 19.1492L20.3212 32.6142C20.4873 32.7773 20.7107 32.8686 20.9435 32.8686C21.1763 32.8686 21.3998 32.7773 21.5658 32.6142L29.147 25.0331C29.9144 24.2719 30.9514 23.8448 32.0323 23.8448C33.1132 23.8448 34.1503 24.2719 34.9177 25.0331C35.0177 25.1124 35.1003 25.2115 35.1606 25.324C35.2208 25.4366 35.2574 25.5603 35.268 25.6875C35.2786 25.8147 35.263 25.9428 35.2222 26.0637C35.1814 26.1847 35.1163 26.2961 35.0308 26.3909Z" fill="white"/>
<path d="M22.3576 19.6035L19.0762 16.3222C18.6389 15.8427 18.3965 15.2172 18.3965 14.5683C18.3965 13.9194 18.6389 13.2939 19.0762 12.8145L19.1894 12.7013C19.4136 12.4604 19.685 12.2682 19.9867 12.1367C20.2885 12.0053 20.6141 11.9375 20.9432 11.9375C21.2723 11.9375 21.5979 12.0053 21.8997 12.1367C22.2014 12.2682 22.4729 12.4604 22.6971 12.7013L29.4861 19.4904C29.6492 19.6565 29.7406 19.88 29.7406 20.1127C29.7406 20.3455 29.6492 20.569 29.4861 20.7351L22.9234 27.2978C22.6992 27.5388 22.4277 27.731 22.126 27.8624C21.8242 27.9938 21.4986 28.0617 21.1695 28.0617C20.8404 28.0617 20.5148 27.9938 20.213 27.8624C19.9113 27.731 19.6399 27.5388 19.4157 27.2978C19.1747 27.0736 18.9825 26.8022 18.8511 26.5005C18.7197 26.1987 18.6518 25.8731 18.6518 25.544C18.6518 25.2148 18.7197 24.8892 18.8511 24.5875C18.9825 24.2857 19.1747 24.0143 19.4157 23.7901L22.4708 20.7351C22.5894 20.5638 22.6432 20.3558 22.6224 20.1485C22.6017 19.9411 22.5078 19.748 22.3576 19.6035Z" fill="white"/>
<path d="M18.2838 19.2625L17.1523 18.131C16.9281 17.89 16.6567 17.6979 16.3549 17.5664C16.0531 17.435 15.7275 17.3672 15.3984 17.3672C15.0693 17.3672 14.7437 17.435 14.4419 17.5664C14.1402 17.6979 13.8688 17.89 13.6446 18.131C13.2073 18.6104 12.9648 19.236 12.9648 19.8849C12.9648 20.5338 13.2073 21.1593 13.6446 21.6387C13.8688 21.8797 14.1402 22.0719 14.4419 22.2033C14.7437 22.3347 15.0693 22.4025 15.3984 22.4025C15.7275 22.4025 16.0531 22.3347 16.3549 22.2033C16.6567 22.0719 16.9281 21.8797 17.1523 21.6387L18.2838 20.5072C18.4469 20.3411 18.5382 20.1176 18.5382 19.8849C18.5382 19.6521 18.4469 19.4286 18.2838 19.2625Z" fill="white"/>
</g>
<defs>
<clipPath id="clip0_34_767">
<rect width="118" height="40" fill="white" transform="translate(0.831055 0.429688)"/>
</clipPath>
</defs>
</svg>
