<svg width="146" height="40" viewBox="0 0 146 40" fill="none" xmlns="http://www.w3.org/2000/svg">
<path d="M17.2336 7.3598H38.7256L39.0316 5.99448C39.4789 3.8759 37.8781 1.875 35.7124 1.875H14.8325C12.1255 1.875 9.79501 3.75818 9.20651 6.39467L4.63976 27.4865C4.19251 29.605 5.79321 31.606 7.9589 31.606H9.23005L13.891 10.0434C14.2441 8.48972 15.6329 7.3598 17.2336 7.3598Z" fill="#00CDFA"/>
<path d="M39.9976 7.35938H38.7264L34.0654 28.9219C33.7359 30.4755 32.3471 31.6055 30.7464 31.6055H9.25437L8.94836 32.9709C8.50111 35.0894 10.1018 37.0904 12.2675 37.0904H33.1474C35.8546 37.0904 38.1849 35.207 38.7734 32.5707L43.3402 11.5024C43.7874 9.36027 42.1632 7.35938 39.9976 7.35938Z" fill="url(#paint0_linear_34_751)"/>
<path d="M34.0651 28.9219L38.7259 7.35938H17.2339C15.6332 7.35938 14.2444 8.46576 13.9148 10.0429L9.25391 31.6055H30.7459C32.3466 31.6055 33.7119 30.4755 34.0651 28.9219Z" fill="#3A00FF"/>
<path d="M16.2457 23.3748L14.6904 15.2891H17.1294L17.8805 20.3349L20.346 15.2891H21.9895L22.9529 20.3349L25.215 15.2891H27.654L23.7039 23.3748H21.6627L20.6905 18.6383L18.3135 23.3748H16.2457Z" fill="white"/>
<path d="M26.7979 22.0684L28.0704 20.5927C28.6447 21.2995 29.3694 21.6619 30.2619 21.6619C30.8362 21.6619 31.3399 21.4234 31.4195 21.0257C31.446 20.787 31.2869 20.5839 30.9157 20.407C30.8274 20.3629 30.633 20.2922 30.3237 20.1862C29.714 19.9475 29.4489 19.8592 28.9187 19.5234C28.1764 19.0639 27.8229 18.4277 27.9465 17.3319C28.1852 15.8385 29.5549 15.0078 31.2869 15.0078C32.471 15.0078 33.443 15.3966 34.2295 16.1654L32.9747 17.6324C32.4534 17.1464 31.8525 16.9077 31.172 16.9077C30.6242 16.9077 30.2972 17.0667 30.2265 17.4114C30.1647 17.6942 30.3149 17.9327 30.6683 18.0919C30.7832 18.1537 31.0219 18.2509 31.3753 18.3834C31.7287 18.516 32.0292 18.6309 32.2767 18.7722C33.0719 19.108 34.0087 19.8945 33.7259 21.0964C33.5934 21.8829 33.1957 22.5014 32.524 22.9432C31.8614 23.385 31.0572 23.606 30.1559 23.606C28.7065 23.5972 27.5844 23.0934 26.7979 22.0684Z" fill="white"/>
<path d="M56.4194 26.6474H54.1356L49.6621 13.1328H52.6288L55.3599 22.2211L58.4208 13.1328H60.1396L63.2709 22.2211L65.9551 13.1328H68.9216L64.4718 26.6474H62.1879L59.3154 17.7946L56.4194 26.6474Z" fill="white"/>
<path d="M71.4648 26.6481H68.875V16.6887H71.3707V18.0307C71.9593 16.9477 72.8775 16.4297 74.1018 16.4297C74.5022 16.4297 74.9023 16.5003 75.3027 16.6416L75.0907 19.1137C74.6433 18.9726 74.2667 18.9019 73.9135 18.9019C73.16 18.9019 72.5715 19.1609 72.1242 19.6552C71.7003 20.1497 71.4648 20.9032 71.4648 21.9156V26.6481Z" fill="white"/>
<path d="M78.7876 13.9758C78.7876 14.4232 78.6465 14.7999 78.3403 15.106C78.0343 15.412 77.6576 15.5533 77.2103 15.5533C76.7628 15.5533 76.3861 15.412 76.0801 15.106C75.774 14.7999 75.6328 14.4232 75.6328 13.9758C75.6328 13.5285 75.774 13.1518 76.0801 12.8692C76.3861 12.5631 76.7628 12.4219 77.2103 12.4219C77.6576 12.4219 78.0343 12.5631 78.3403 12.8692C78.6465 13.1518 78.7876 13.5285 78.7876 13.9758ZM78.4816 16.6834V26.6429H75.8918V16.6834H78.4816Z" fill="white"/>
<path d="M86.488 24.0339L87.265 26.0588C86.441 26.6004 85.452 26.8829 84.322 26.8829C83.1682 26.8829 82.3207 26.5533 81.732 25.8941C81.1433 25.2348 80.8608 24.2459 80.8608 22.9509V18.8306H79.2363V16.6645H80.8843V13.1328H83.4508V16.6645H86.747V18.8306H83.4508V22.7861C83.4508 23.9634 83.9217 24.5519 84.8635 24.5519C85.3343 24.5519 85.8993 24.3871 86.488 24.0339Z" fill="white"/>
<path d="M97.2703 21.4447C97.2703 21.7507 97.2466 22.1276 97.1759 22.5749H89.6888C90.0656 23.9876 91.0308 24.6939 92.5848 24.6939C93.7384 24.6939 94.8216 24.3642 95.8104 23.6814L96.8228 25.4944C95.5514 26.4126 94.1153 26.8599 92.4671 26.8599C90.7248 26.8599 89.3828 26.3656 88.4409 25.3531C87.5228 24.3642 87.0518 23.1164 87.0518 21.6566C87.0518 20.1262 87.5228 18.8784 88.4881 17.9131C89.4534 16.9241 90.7013 16.4297 92.2316 16.4297C93.6914 16.4297 94.8686 16.8771 95.8104 17.7717C96.7993 18.6899 97.2703 19.9142 97.2703 21.4447ZM92.2788 18.5722C91.6429 18.5722 91.0779 18.7606 90.6306 19.1372C90.1833 19.5141 89.8771 20.0084 89.7124 20.6677H94.7744C94.6568 20.0321 94.3743 19.5141 93.9268 19.1372C93.4794 18.7606 92.9379 18.5722 92.2788 18.5722Z" fill="white"/>
<path d="M101.602 26.9076C99.8594 26.9076 98.4939 26.2719 97.4814 24.9769L98.8471 23.3524C99.2003 23.7762 99.6241 24.1057 100.118 24.3647C100.613 24.6237 101.107 24.7414 101.602 24.7414C102.002 24.7414 102.308 24.6472 102.591 24.4589C102.85 24.2706 102.991 24.0351 102.991 23.7526C102.991 23.3994 102.755 23.1169 102.285 22.9051C102.143 22.8344 101.743 22.6931 101.107 22.4576C100.542 22.2457 100.118 22.0809 99.8359 21.9161C98.6823 21.3746 98.1173 20.5034 98.1173 19.3262C98.1173 18.4551 98.4468 17.7487 99.1296 17.1601C99.7889 16.595 100.707 16.3125 101.837 16.3125C103.25 16.3125 104.427 16.7834 105.322 17.7487L104.05 19.4204C103.344 18.7611 102.591 18.4316 101.767 18.4316C101.437 18.4316 101.154 18.5021 100.943 18.6669C100.731 18.8317 100.613 19.0201 100.613 19.2556C100.613 19.6794 100.895 19.9854 101.484 20.1737C102.779 20.6682 103.58 20.9744 103.886 21.1391C105.016 21.7277 105.557 22.5754 105.557 23.6584C105.557 24.6002 105.181 25.3536 104.451 25.9657C103.744 26.6016 102.803 26.9076 101.602 26.9076Z" fill="white"/>
<path d="M106.026 21.6568C106.026 20.1734 106.521 18.9491 107.533 17.9366C108.546 16.9243 109.817 16.4062 111.371 16.4062C112.925 16.4062 114.196 16.9243 115.209 17.9366C116.198 18.9256 116.716 20.1734 116.716 21.6568C116.716 23.1401 116.221 24.3879 115.209 25.3768C114.196 26.3891 112.925 26.8836 111.371 26.8836C109.817 26.8836 108.546 26.3891 107.533 25.3768C106.521 24.3879 106.026 23.1401 106.026 21.6568ZM109.393 23.6816C109.911 24.2231 110.571 24.5056 111.371 24.5056C112.148 24.5056 112.784 24.2231 113.325 23.6816C113.867 23.1164 114.126 22.4336 114.126 21.6568C114.126 20.8798 113.867 20.1969 113.325 19.6554C112.784 19.1139 112.148 18.8313 111.371 18.8313C110.571 18.8313 109.911 19.1139 109.393 19.6554C108.875 20.1969 108.616 20.8563 108.616 21.6568C108.616 22.4573 108.875 23.1399 109.393 23.6816Z" fill="white"/>
<path d="M120.366 26.6481H117.776V16.6887H120.296V18.0777C120.555 17.5834 120.978 17.1831 121.544 16.8771C122.109 16.571 122.721 16.4297 123.427 16.4297C124.51 16.4297 125.428 16.7829 126.182 17.5127C126.935 18.2426 127.312 19.2551 127.312 20.5736V26.6716H124.722V21.2799C124.722 20.5029 124.534 19.8907 124.157 19.4669C123.78 19.0431 123.262 18.8077 122.627 18.8077C121.944 18.8077 121.402 19.0431 120.978 19.5141C120.555 19.9849 120.343 20.5971 120.343 21.3269V26.6481H120.366Z" fill="white"/>
<path d="M131.739 13.9758C131.739 14.4232 131.598 14.7999 131.291 15.106C130.985 15.412 130.609 15.5533 130.161 15.5533C129.714 15.5533 129.337 15.412 129.031 15.106C128.725 14.7999 128.584 14.4232 128.584 13.9758C128.584 13.5285 128.725 13.1518 129.031 12.8692C129.337 12.5631 129.714 12.4219 130.161 12.4219C130.609 12.4219 130.985 12.5631 131.291 12.8692C131.598 13.1518 131.739 13.5285 131.739 13.9758ZM131.433 16.6834V26.6429H128.843V16.6834H131.433Z" fill="white"/>
<path d="M137.766 26.8834C136.236 26.8834 134.965 26.3889 133.952 25.4236C132.963 24.4583 132.469 23.2104 132.469 21.6801C132.469 20.1496 132.963 18.9018 133.976 17.9364C134.988 16.9476 136.283 16.4531 137.837 16.4531C138.849 16.4531 139.791 16.6886 140.615 17.1829C141.439 17.6774 142.075 18.3603 142.475 19.2314L140.403 20.3616C139.791 19.3491 138.944 18.8546 137.861 18.8546C137.036 18.8546 136.354 19.1373 135.836 19.6788C135.294 20.2203 135.035 20.8796 135.035 21.6801C135.035 22.5041 135.294 23.1869 135.812 23.7284C136.354 24.2699 137.013 24.5289 137.813 24.5289C138.331 24.5289 138.826 24.3876 139.32 24.1051C139.791 23.8226 140.144 23.4694 140.356 23.0221L142.452 24.2464C142.028 25.0469 141.392 25.6826 140.568 26.1771C139.721 26.6244 138.779 26.8834 137.766 26.8834Z" fill="white"/>
<defs>
<linearGradient id="paint0_linear_34_751" x1="8.87259" y1="22.2282" x2="43.4061" y2="22.2282" gradientUnits="userSpaceOnUse">
<stop stop-color="#FFB3FF"/>
<stop offset="0.5335" stop-color="#FF76DF"/>
<stop offset="1" stop-color="#C239C6"/>
</linearGradient>
</defs>
</svg>
