<svg width="135" height="40" viewBox="0 0 135 40" fill="none" xmlns="http://www.w3.org/2000/svg">
<path fill-rule="evenodd" clip-rule="evenodd" d="M88.2867 17.6129C89.3986 17.6129 90.2712 17.9596 90.9072 18.654C91.5438 19.3474 91.8834 20.3369 91.9294 21.621C91.9391 21.7458 91.9442 21.9138 91.9456 22.1255L91.946 22.2578C91.946 22.5329 91.941 22.7509 91.9294 22.9112C91.8834 24.151 91.5393 25.1255 90.8989 25.8366C90.2568 26.5477 89.3853 26.9032 88.2867 26.9032C87.1747 26.9032 86.3437 26.5244 85.7946 25.7678V29.5696C85.7946 29.6961 85.7542 29.7992 85.6738 29.8791C85.5941 29.9601 85.4911 30 85.3647 30H83.1481C83.0228 30 82.9159 29.9601 82.8306 29.8791C82.7442 29.7992 82.7009 29.6961 82.7009 29.5696V18.2147C82.7009 18.0888 82.7442 17.9851 82.8306 17.9058C82.9159 17.8248 83.0228 17.7843 83.1481 17.7843H85.1929C85.3187 17.7843 85.4223 17.8248 85.5015 17.9058C85.583 17.9851 85.6223 18.0888 85.6223 18.2147V18.8343C86.2417 18.0195 87.1287 17.6129 88.2867 17.6129ZM55.1209 14.516C56.1298 14.516 57.0023 14.6907 57.742 15.0407C58.4805 15.3907 59.0484 15.8261 59.4423 16.3475C59.8385 16.87 60.0467 17.3831 60.0706 17.8879C60.0706 17.991 60.0351 18.0798 59.967 18.1547C59.8983 18.2295 59.813 18.2667 59.7099 18.2667H57.3032C57.0517 18.2667 56.8567 18.163 56.7198 17.9566C56.6511 17.7159 56.4722 17.5123 56.1868 17.3459C55.9004 17.1795 55.5453 17.0963 55.1209 17.0963C54.64 17.0963 54.2682 17.1823 54.0039 17.3543C53.7408 17.5268 53.6095 17.7786 53.6095 18.1114C53.6095 18.4448 53.7801 18.7049 54.1247 18.8946C54.4682 19.0838 55.1104 19.2762 56.0484 19.4709C57.1253 19.6662 57.9824 19.9097 58.6174 20.202C59.2539 20.4943 59.7237 20.8731 60.0274 21.3374C60.331 21.8022 60.4833 22.3896 60.4833 23.1008C60.4833 23.8812 60.2595 24.5579 59.813 25.1309C59.3658 25.705 58.7476 26.1437 57.9564 26.4471C57.1658 26.7511 56.2611 26.9031 55.2416 26.9031C54.1297 26.9031 53.1845 26.7422 52.4056 26.4216C51.6266 26.1004 51.036 25.6761 50.6366 25.1481C50.2349 24.6211 50.0222 24.047 50 23.428C50 23.3248 50.0382 23.2389 50.1119 23.1701C50.1861 23.1008 50.2754 23.0663 50.3779 23.0663H52.6643C52.8011 23.0663 52.913 23.0891 52.9984 23.1357C53.0854 23.1811 53.179 23.2616 53.282 23.3764C53.4305 23.6516 53.6632 23.8784 53.979 24.0554C54.2932 24.2345 54.7142 24.3221 55.2416 24.3221C55.8594 24.3221 56.3353 24.2279 56.6677 24.0387C56.9996 23.8496 57.1658 23.5889 57.1658 23.256C57.1658 23.0148 57.0805 22.8173 56.9087 22.6625C56.7364 22.5073 56.461 22.3697 56.0838 22.2498C55.7059 22.1289 55.1607 21.9947 54.4511 21.845C53.0637 21.5698 52.0277 21.151 51.3413 20.5886C50.6532 20.0273 50.3091 19.2241 50.3091 18.1807C50.3091 17.4691 50.5075 16.8356 50.9019 16.2793C51.2981 15.7235 51.8587 15.2903 52.5856 14.9808C53.3147 14.6702 54.1591 14.516 55.1209 14.516ZM119.562 17.6129C120.548 17.6129 121.382 17.8104 122.063 18.2064C122.745 18.6019 123.254 19.1466 123.593 19.8405C123.929 20.535 124.099 21.3232 124.099 22.2067V22.636C124.099 22.7626 124.057 22.8685 123.971 22.955C123.885 23.0405 123.779 23.0837 123.652 23.0837H118.206V23.1869C118.217 23.7033 118.337 24.1193 118.567 24.4344C118.795 24.7499 119.122 24.9075 119.545 24.9075C119.821 24.9075 120.041 24.8531 120.207 24.7433C120.373 24.6352 120.531 24.4943 120.679 24.3218C120.783 24.208 120.865 24.1365 120.928 24.1077C120.992 24.0788 121.092 24.065 121.229 24.065H123.481C123.584 24.065 123.673 24.096 123.747 24.1592C123.822 24.2225 123.858 24.2995 123.858 24.3911C123.858 24.6901 123.689 25.039 123.352 25.4411C123.013 25.8421 122.521 26.1866 121.874 26.4728C121.226 26.7595 120.462 26.9032 119.581 26.9032C118.182 26.9032 117.083 26.5272 116.28 25.7767C115.478 25.0251 115.066 23.9329 115.044 22.4985V21.9649C115.088 20.6009 115.512 19.5338 116.315 18.765C117.116 17.9973 118.199 17.6129 119.562 17.6129ZM134.134 14.516C134.261 14.516 134.367 14.5565 134.451 14.6364C134.537 14.7168 134.581 14.8194 134.581 14.9453V26.3013C134.581 26.4277 134.537 26.531 134.451 26.6108C134.367 26.6912 134.261 26.7311 134.134 26.7311H132.088C131.974 26.7311 131.874 26.6885 131.787 26.6025C131.703 26.5165 131.658 26.4161 131.658 26.3013V25.7677C131.041 26.5243 130.153 26.9031 128.996 26.9031C127.885 26.9031 127.011 26.5531 126.375 25.8536C125.74 25.1543 125.398 24.1563 125.354 22.8601L125.335 22.2577L125.354 21.6392C125.398 20.3884 125.742 19.405 126.384 18.6883C127.024 17.9717 127.895 17.6128 128.996 17.6128C130.027 17.6128 130.857 17.9456 131.487 18.6101V14.9453C131.487 14.8194 131.531 14.7168 131.615 14.6364C131.703 14.5565 131.803 14.516 131.918 14.516H134.134ZM64.5217 17.7842C64.6475 17.7842 64.7545 17.8247 64.8392 17.9057C64.9246 17.985 64.9684 18.0887 64.9684 18.2146V26.3013C64.9684 26.4277 64.9246 26.531 64.8392 26.6108C64.7545 26.6912 64.6475 26.7306 64.5217 26.7306H62.3738C62.2591 26.7306 62.1583 26.6885 62.073 26.6025C61.9866 26.5165 61.9433 26.4161 61.9433 26.3013V18.2146C61.9433 18.0887 61.9866 17.985 62.073 17.9057C62.1583 17.8247 62.2591 17.7842 62.3738 17.7842H64.5217ZM77.6496 17.6128C78.5893 17.6128 79.3543 17.9306 79.9444 18.568C80.5333 19.2042 80.8281 20.1533 80.8281 21.4146V26.3013C80.8281 26.4161 80.7893 26.5165 80.7084 26.6025C80.6281 26.6885 80.525 26.7306 80.3992 26.7306H78.2861C78.1599 26.7306 78.054 26.6912 77.9671 26.6108C77.8817 26.531 77.8386 26.4277 77.8386 26.3013V21.535C77.8386 21.008 77.7266 20.6208 77.5039 20.374C77.2801 20.1277 76.9798 20.004 76.6019 20.004C76.2468 20.004 75.957 20.1277 75.7337 20.374C75.51 20.6208 75.3981 21.008 75.3981 21.535V26.3013C75.3981 26.4161 75.3587 26.5165 75.2778 26.6025C75.1981 26.6885 75.0944 26.7306 74.9687 26.7306H72.8556C72.7299 26.7306 72.6235 26.6912 72.5371 26.6108C72.4512 26.531 72.4079 26.4277 72.4079 26.3013V21.535C72.4079 21.008 72.2933 20.6208 72.0656 20.374C71.8362 20.1277 71.5381 20.004 71.1719 20.004C70.8168 20.004 70.5242 20.1277 70.2949 20.374C70.0661 20.6208 69.9514 21.0019 69.9514 21.5177V26.3013C69.9514 26.4161 69.9104 26.5165 69.8306 26.6025C69.7508 26.6885 69.6477 26.7306 69.5214 26.7306H67.3569C67.2422 26.7306 67.1413 26.6885 67.056 26.6025C66.9696 26.5165 66.9264 26.4161 66.9264 26.3013V18.2146C66.9264 18.0887 66.9696 17.985 67.056 17.9057C67.1413 17.8247 67.2422 17.7842 67.3569 17.7842H69.3497C69.4754 17.7842 69.5791 17.8247 69.6583 17.9057C69.7387 17.985 69.7791 18.0887 69.7791 18.2146V18.7993C70.0545 18.467 70.4096 18.1863 70.8445 17.9567C71.2794 17.7276 71.7736 17.6128 72.3226 17.6128C73.5825 17.6128 74.4473 18.1059 74.9165 19.0921C75.1925 18.6567 75.5758 18.3012 76.0695 18.026C76.5615 17.7504 77.0884 17.6128 77.6496 17.6128ZM96.1922 14.5159C96.318 14.5159 96.421 14.5563 96.5014 14.6362C96.5806 14.7166 96.6216 14.8198 96.6216 14.9457V26.3011C96.6216 26.416 96.5806 26.5164 96.5014 26.6023C96.421 26.6889 96.318 26.731 96.1922 26.731H94.0436C93.9184 26.731 93.8115 26.6917 93.7268 26.6106C93.6398 26.5308 93.5966 26.4276 93.5966 26.3011V14.9457C93.5966 14.8198 93.6398 14.7166 93.7268 14.6362C93.8115 14.5563 93.9184 14.5159 94.0436 14.5159H96.1922ZM101.158 17.7842C101.284 17.7842 101.39 17.8247 101.476 17.9057C101.561 17.985 101.605 18.0887 101.605 18.2146V26.3013C101.605 26.4277 101.561 26.531 101.476 26.6108C101.39 26.6912 101.284 26.7306 101.158 26.7306H99.0101C98.8954 26.7306 98.7946 26.6885 98.7092 26.6025C98.6228 26.5165 98.5796 26.4161 98.5796 26.3013V18.2146C98.5796 18.0887 98.6228 17.985 98.7092 17.9057C98.7946 17.8247 98.8954 17.7842 99.0101 17.7842H101.158ZM113 14C113.125 14 113.227 14.0394 113.308 14.1204C113.388 14.2008 113.428 14.304 113.428 14.4299V15.9098C113.428 16.0246 113.388 16.1244 113.308 16.2104C113.227 16.2969 113.125 16.3391 113 16.3391H108.583C108.215 16.3391 107.955 16.4228 107.799 16.5887C107.645 16.7551 107.569 17.0108 107.569 17.3547V17.784H113C113.125 17.784 113.227 17.8251 113.308 17.9055C113.388 17.9854 113.428 18.0891 113.428 18.215V26.3011C113.428 26.416 113.388 26.5164 113.308 26.6023C113.227 26.6889 113.125 26.731 113 26.731H110.901C110.776 26.731 110.67 26.6917 110.584 26.6106C110.499 26.5308 110.456 26.4276 110.456 26.3011V20.1248H107.569V26.3011C107.569 26.416 107.529 26.5164 107.449 26.6023C107.367 26.6889 107.264 26.731 107.138 26.731H105.041C104.916 26.731 104.809 26.6917 104.724 26.6106C104.638 26.5308 104.596 26.4276 104.596 26.3011V20.1248H103.306C103.181 20.1248 103.074 20.0849 102.989 20.0044C102.902 19.9234 102.86 19.8208 102.86 19.6943V18.215C102.86 18.0891 102.902 17.9854 102.989 17.9055C103.074 17.8251 103.181 17.784 103.306 17.784H104.596V17.2682C104.596 16.1217 104.927 15.2902 105.591 14.7743C106.256 14.2574 107.206 14 108.444 14H113ZM129.992 20.0046C129.477 20.0046 129.107 20.156 128.884 20.46C128.661 20.7639 128.532 21.185 128.497 21.7241L128.48 22.2577L128.497 22.7913C128.532 23.3304 128.661 23.752 128.884 24.0554C129.107 24.3599 129.477 24.5125 129.992 24.5125C130.484 24.5125 130.852 24.3544 131.093 24.0388C131.334 23.7231 131.465 23.3249 131.487 22.8434C131.51 22.5218 131.522 22.3037 131.522 22.1889C131.522 22.063 131.51 21.8511 131.487 21.5533C131.465 21.1056 131.33 20.7351 131.084 20.4428C130.837 20.1505 130.473 20.0046 129.992 20.0046ZM87.2894 20.0041C86.7969 20.0041 86.4306 20.1617 86.1902 20.4772C85.9497 20.7923 85.8185 21.1917 85.7946 21.6732C85.785 21.7975 85.7799 21.9692 85.7785 22.1893L85.778 22.3271C85.778 22.6023 85.783 22.8147 85.7946 22.9634C85.8185 23.411 85.9525 23.7804 86.1985 24.0727C86.445 24.3656 86.8085 24.512 87.2894 24.512C87.8057 24.512 88.1747 24.36 88.3986 24.0555C88.6218 23.7521 88.7509 23.33 88.7842 22.7914C88.7958 22.6771 88.8025 22.4985 88.8025 22.2578C88.8025 22.0165 88.7958 21.839 88.7842 21.7242C88.7509 21.1851 88.6218 20.7635 88.3986 20.4601C88.1747 20.1561 87.8057 20.0041 87.2894 20.0041ZM119.562 19.5571C119.127 19.5571 118.792 19.709 118.558 20.0125C118.323 20.3164 118.206 20.7441 118.206 21.2943V21.3287H120.937V21.2943C120.937 20.7441 120.817 20.3164 120.576 20.0125C120.335 19.709 119.999 19.5571 119.562 19.5571ZM64.5217 14.0512C64.6475 14.0512 64.7545 14.0945 64.8392 14.1804C64.9246 14.2664 64.9684 14.3724 64.9684 14.4983V16.0985C64.9684 16.2255 64.9246 16.3309 64.8392 16.4169C64.7545 16.5029 64.6475 16.5462 64.5217 16.5462H62.3738C62.2463 16.5462 62.1445 16.5029 62.063 16.4169C61.9837 16.3309 61.9433 16.2255 61.9433 16.0985V14.4983C61.9433 14.3724 61.9866 14.2664 62.073 14.1804C62.1583 14.0945 62.2591 14.0512 62.3738 14.0512H64.5217ZM101.158 14.0512C101.284 14.0512 101.39 14.0945 101.476 14.1804C101.561 14.2664 101.605 14.3724 101.605 14.4983V16.0985C101.605 16.2255 101.561 16.3309 101.476 16.4169C101.39 16.5029 101.284 16.5462 101.158 16.5462H99.0101C98.8827 16.5462 98.7807 16.5029 98.6993 16.4169C98.6201 16.3309 98.5796 16.2255 98.5796 16.0985V14.4983C98.5796 14.3724 98.6228 14.2664 98.7092 14.1804C98.7946 14.0945 98.8954 14.0512 99.0101 14.0512H101.158Z" fill="white"/>
<circle cx="20" cy="20" r="20" fill="#070906"/>
<path fill-rule="evenodd" clip-rule="evenodd" d="M28.4666 20.0409V27.1806L28.0211 27.6267L24.4562 31.1975L22.2285 33.4285C21.2435 34.4143 19.6479 34.4143 18.6636 33.4285C17.6793 32.4427 17.6793 30.8441 18.6636 29.8583L20.8913 27.6267L24.4562 24.0572L24.9017 23.611L28.4666 20.0409ZM27.5757 19.1483L24.0108 22.7184L23.5652 23.1647L20.0003 26.7349L19.5548 27.181H12.4251L16.4355 23.1647L20.0003 19.5945L20.4459 19.1483H27.5757ZM17.7722 12.9005C18.7566 11.9147 20.3528 11.9147 21.3371 12.9005C22.3215 13.8863 22.3215 15.4848 21.3371 16.4706L15.0984 22.7185L11.5342 26.288V19.1484L11.9797 18.7016L15.544 15.132L17.7722 12.9005Z" fill="#FFAD00"/>
</svg>
