<svg width="127" height="40" viewBox="0 0 127 40" fill="none" xmlns="http://www.w3.org/2000/svg">
<g clip-path="url(#clip0_34_698)">
<mask id="mask0_34_698" style="mask-type:luminance" maskUnits="userSpaceOnUse" x="0" y="0" width="166" height="40">
<path d="M165.6 0.078125H0V39.9217H165.6V0.078125Z" fill="white"/>
</mask>
<g mask="url(#mask0_34_698)">
<path d="M48.0625 13.8133H51.9005V24.4444H53.9438V13.8133H57.7818V12H48.0625V13.8133Z" fill="white"/>
<path d="M60.6765 24.4992L60.3212 25.3881C60.0369 26.1348 59.6135 26.3126 58.8673 26.3126L58.1363 28.0015H59.8236C61.1562 28.0015 61.5472 27.3437 62.1158 25.8681L66.2381 15.3438H64.1947L61.7249 22.2593L59.184 15.3438H57.1406L60.6765 24.4992Z" fill="white"/>
<path d="M71.7171 15.2344C70.2956 15.2344 69.3538 15.8921 68.7499 16.6922L68.5187 15.3411H66.8486V27.9988H68.7679V23.1632C69.3364 23.981 70.3135 24.5498 71.7171 24.5498C74.205 24.5498 76.0172 22.701 76.0172 19.8921C76.0172 16.9766 74.205 15.2344 71.7171 15.2344ZM71.3973 22.9321C69.7983 22.9321 68.7499 21.6699 68.7499 19.8566C68.7499 18.0966 69.7983 16.8699 71.3973 16.8699C72.9967 16.8699 74.0625 18.0966 74.0625 19.8921C74.0625 21.6699 72.9967 22.9321 71.3973 22.9321Z" fill="white"/>
<path d="M81.5206 24.5498C83.7772 24.5498 85.3049 23.181 85.6248 21.3854H83.706C83.4394 22.3988 82.5864 22.9854 81.4139 22.9854C79.9037 22.9854 78.9261 21.9721 78.8728 20.4254V20.301H85.7315C85.7668 20.0521 85.7848 19.8032 85.7848 19.5721C85.7315 16.9055 83.9726 15.2344 81.3427 15.2344C78.6595 15.2344 76.8652 17.101 76.8652 19.9098C76.8652 22.701 78.6595 24.5498 81.5206 24.5498ZM78.944 18.8966C79.086 17.5988 80.1344 16.781 81.3606 16.781C82.693 16.781 83.6347 17.5455 83.7947 18.8966H78.944Z" fill="white"/>
<path d="M88.7621 24.446H90.8409L92.831 18.2593L94.7498 24.446H96.8107L99.8317 15.3438H97.877L95.7275 22.3126L93.7374 15.3438H91.978L89.8992 22.3126L87.8204 15.3438H85.7949L88.7621 24.446Z" fill="white"/>
<path d="M100.49 24.446H102.409V15.3438H100.49V24.446Z" fill="white"/>
<path d="M103.542 21.439C103.595 23.4124 105.265 24.5501 107.7 24.5501C109.902 24.5501 111.555 23.4479 111.555 21.7057C111.555 19.679 109.867 19.2524 107.789 19.0035C106.473 18.8612 105.602 18.7546 105.602 17.9012C105.602 17.1724 106.349 16.7101 107.486 16.7101C108.623 16.7101 109.406 17.2968 109.512 18.1323H111.395C111.271 16.2657 109.689 15.2346 107.45 15.2346C105.265 15.2168 103.719 16.3368 103.719 18.0613C103.719 19.9457 105.354 20.3901 107.432 20.639C108.836 20.8168 109.672 20.8879 109.672 21.8657C109.672 22.5946 108.89 23.0568 107.7 23.0568C106.313 23.0568 105.496 22.3812 105.425 21.439H103.542Z" fill="white"/>
<path d="M117.007 24.5498C119.263 24.5498 120.791 23.1809 121.111 21.3854H119.192C118.925 22.3988 118.072 22.9854 116.9 22.9854C115.39 22.9854 114.412 21.9721 114.359 20.4254V20.3009H121.218C121.253 20.0521 121.271 19.8032 121.271 19.5721C121.218 16.9055 119.458 15.2344 116.829 15.2344C114.146 15.2344 112.352 17.101 112.352 19.9098C112.352 22.701 114.146 24.5498 117.007 24.5498ZM114.43 18.8965C114.572 17.5988 115.62 16.781 116.846 16.781C118.179 16.781 119.121 17.5455 119.281 18.8965H114.43Z" fill="white"/>
<mask id="mask1_34_698" style="mask-type:luminance" maskUnits="userSpaceOnUse" x="0" y="0" width="40" height="40">
<path d="M39.7022 0.078125H0V39.9218H39.7022V0.078125Z" fill="white"/>
</mask>
<g mask="url(#mask1_34_698)">
<path d="M16.7368 39.8158C21.9902 38.7268 27.1678 37.2978 32.2374 35.5378C32.9645 35.2864 33.6249 34.8721 34.1687 34.3263C34.7125 33.7806 35.1254 33.1178 35.3759 32.3881C37.1085 27.2946 38.5238 22.0979 39.6136 16.8282C39.7659 16.0931 39.7482 15.3329 39.5621 14.6058C39.3758 13.8788 39.0261 13.2042 38.5396 12.6341C35.0005 8.59224 31.2019 4.78713 27.168 1.24297C26.6008 0.753654 25.9278 0.404046 25.2021 0.222008C24.4766 0.0399691 23.7186 0.0305333 22.9888 0.194451C17.7331 1.28161 12.554 2.71204 7.48405 4.47658C6.75635 4.72693 6.0953 5.14086 5.55134 5.68674C5.00739 6.23263 4.59494 6.89605 4.3455 7.62634C2.6071 12.7169 1.19034 17.9125 0.103624 23.1821C-0.0495292 23.9168 -0.0327208 24.6768 0.152755 25.404C0.338231 26.1311 0.687432 26.8057 1.1735 27.3762C4.7137 31.4155 8.51224 35.2192 12.545 38.763C13.1185 39.2417 13.7918 39.5843 14.5154 39.7658C15.239 39.9474 15.9938 39.963 16.7242 39.8115" fill="#1D58E2"/>
<path d="M17.8657 20.6813C17.7191 20.6443 17.5667 20.6365 17.4172 20.6587C17.2677 20.6809 17.124 20.7323 16.9944 20.8102C16.8647 20.8882 16.7517 20.9909 16.6617 21.1128C16.5717 21.2345 16.5064 21.373 16.4699 21.5202L15.5714 25.4458C15.4577 25.9498 15.1967 26.4081 14.822 26.7625C14.4472 27.1167 13.9756 27.3508 13.4676 27.4345C12.9596 27.5183 12.4382 27.4481 11.9702 27.2328C11.5022 27.0173 11.1088 26.6669 10.8405 26.2258C10.4859 25.6374 10.3706 24.9345 10.5187 24.2631L12.8757 11.5048C12.9136 11.3486 12.9194 11.1863 12.8926 11.0278C12.8657 10.8694 12.8068 10.7181 12.7197 10.5833C12.6324 10.4485 12.5186 10.3331 12.3852 10.2441C12.2519 10.1551 12.1018 10.0944 11.9442 10.0657C11.7866 10.0371 11.6248 10.0411 11.4688 10.0775C11.3128 10.1139 11.1659 10.1819 11.0371 10.2774C10.9083 10.3729 10.8003 10.4939 10.7197 10.6328C10.6392 10.7717 10.5879 10.9257 10.5688 11.0853L9.72041 15.6485L6.61112 16.697C6.46543 16.7447 6.33072 16.8212 6.21492 16.9219C6.09911 17.0226 6.00456 17.1457 5.9368 17.2836C5.86904 17.4216 5.82945 17.5716 5.82037 17.7253C5.81131 17.8788 5.83292 18.0325 5.88394 18.1774C5.965 18.4182 6.12068 18.6267 6.3282 18.7724C6.53574 18.9179 6.78424 18.9931 7.0374 18.9869C7.14642 18.9814 7.25441 18.9631 7.3592 18.9325L9.23985 18.3117L8.22009 23.764C8.05745 24.5046 8.06601 25.2727 8.24513 26.0094C8.42417 26.7462 8.76905 27.432 9.25321 28.0143C9.73737 28.5965 10.348 29.0597 11.0383 29.3685C11.7285 29.6772 12.48 29.8231 13.2351 29.7951C14.0611 29.754 14.8639 29.5075 15.5714 29.0779C16.1237 28.7406 16.6028 28.2955 16.9804 27.7688C17.3581 27.2421 17.6264 26.6447 17.7696 26.0121L18.6807 22.1074C18.7235 21.96 18.7362 21.8054 18.7181 21.653C18.7001 21.5006 18.6515 21.3535 18.5755 21.2204C18.4994 21.0873 18.3972 20.9709 18.2752 20.8782C18.1533 20.7856 18.014 20.7187 17.8657 20.6813Z" fill="white"/>
<path d="M16.1967 14.7032C16.1486 14.5584 16.0724 14.4245 15.9724 14.3095C15.8724 14.1943 15.7508 14.1003 15.6144 14.0328C15.4779 13.9653 15.3295 13.9257 15.1776 13.9163C15.0258 13.9068 14.8735 13.9276 14.7298 13.9776L13.6599 14.3258L13.2002 16.9387L15.4528 16.1837C15.7468 16.086 15.9901 15.8752 16.1296 15.5977C16.269 15.3203 16.2932 14.9985 16.1967 14.7032Z" fill="white"/>
<path d="M21.4593 27.5964C21.0089 27.6285 20.5565 27.5904 20.1178 27.4832C19.4865 27.3405 18.8901 27.0716 18.3645 26.6926C17.8389 26.3136 17.3948 25.8322 17.0587 25.2772C16.715 24.73 16.4857 24.1186 16.3845 23.4798C16.2831 22.8411 16.312 22.1884 16.4694 21.5612C16.5409 21.2614 16.7281 21.0024 16.9898 20.8412C17.2517 20.68 17.5665 20.6296 17.8653 20.7015C18.164 20.7732 18.422 20.9611 18.5827 21.2238C18.7433 21.4865 18.7934 21.8025 18.7219 22.1023C18.6445 22.4344 18.6329 22.7786 18.6879 23.1152C18.7431 23.4518 18.8637 23.7742 19.043 24.064C19.2223 24.3538 19.4568 24.6053 19.7329 24.8041C20.0093 25.0028 20.3217 25.1452 20.6527 25.2226C20.9839 25.3011 21.3273 25.3132 21.6633 25.2581C21.9992 25.2032 22.3209 25.0822 22.6101 24.9023C22.8994 24.7222 23.1505 24.4868 23.3488 24.2092C23.5471 23.9317 23.689 23.6176 23.7662 23.285L24.6773 19.3845C24.7117 19.2352 24.775 19.0944 24.864 18.9698C24.9527 18.8452 25.0653 18.7397 25.1949 18.6589C25.3246 18.5782 25.4689 18.524 25.6196 18.4994C25.7701 18.4748 25.9241 18.4804 26.0727 18.5158C26.2211 18.5512 26.3612 18.6156 26.4847 18.7056C26.6082 18.7955 26.7129 18.909 26.7925 19.0396C26.8722 19.1703 26.9253 19.3154 26.9489 19.4667C26.9725 19.6181 26.9661 19.7725 26.9298 19.9213L26.0188 23.8051C25.8749 24.4375 25.6064 25.0346 25.2289 25.5612C24.8513 26.0879 24.3724 26.5331 23.8205 26.8709C23.1142 27.3244 22.2977 27.5752 21.4593 27.5964Z" fill="white"/>
<path d="M29.6648 25.4161C28.7907 25.4483 27.9235 25.2485 27.151 24.8369C26.3782 24.4252 25.7274 23.8164 25.2642 23.0717C24.921 22.5251 24.6918 21.9143 24.5905 21.2763C24.4893 20.6385 24.518 19.9864 24.6749 19.3599C24.7093 19.2107 24.7728 19.0698 24.8615 18.9452C24.9505 18.8207 25.0629 18.7151 25.1926 18.6343C25.3222 18.5537 25.4666 18.4994 25.6172 18.4748C25.7678 18.4503 25.9219 18.4559 26.0703 18.4913C26.2187 18.5267 26.3588 18.5911 26.4823 18.6811C26.6059 18.771 26.7106 18.8845 26.7902 19.0151C26.8699 19.1457 26.923 19.2909 26.9466 19.4422C26.9702 19.5935 26.9637 19.748 26.9276 19.8967C26.8494 20.229 26.8374 20.5732 26.8923 20.91C26.9471 21.2468 27.0676 21.5695 27.247 21.8595C27.4265 22.1493 27.6612 22.4008 27.9376 22.5995C28.2142 22.7983 28.527 22.9401 28.8583 23.0171C29.5229 23.1708 30.2209 23.057 30.8029 22.7004C31.385 22.3437 31.8046 21.7723 31.9718 21.1089L32.8828 17.2042C32.9543 16.9044 33.1415 16.6454 33.4034 16.4842C33.6651 16.3229 33.98 16.2727 34.2787 16.3445C34.5774 16.4162 34.8355 16.6041 34.9962 16.8668C35.1567 17.1295 35.207 17.4454 35.1354 17.7452L34.2244 21.6456C33.9757 22.6859 33.3962 23.6166 32.5735 24.2969C31.7509 24.9771 30.7299 25.37 29.6648 25.4161Z" fill="white"/>
</g>
</g>
</g>
<defs>
<clipPath id="clip0_34_698">
<rect width="127" height="40" fill="white"/>
</clipPath>
</defs>
</svg>
