<svg width="128" height="128" viewBox="0 0 128 128" fill="none" xmlns="http://www.w3.org/2000/svg">
<circle cx="64" cy="64" r="64" fill="url(#paint0_linear_363_10107)"/>
<path fill-rule="evenodd" clip-rule="evenodd" d="M71.5197 53.3935C68.7614 56.2667 63.7347 56.2679 60.9753 53.3935L59.8439 52.215L57.5812 54.572L58.7125 55.7505C60.7196 57.8412 63.4824 58.8854 66.2463 58.8865L52.2864 73.4282L54.5491 75.7852L68.5091 61.2436C68.5102 64.1227 69.5126 67.0006 71.5197 69.0913L72.651 70.2698L74.9138 67.9128L73.7824 66.7343C71.023 63.8599 71.0241 58.6237 73.7824 55.7505L74.9138 54.572L72.651 52.215L71.5197 53.3935Z" fill="white"/>
<path d="M69.3135 20.0519C68.4244 19.9421 67.68 19.6959 67.0803 19.3134C66.4817 18.9219 66.0116 18.4511 65.6699 17.9008C65.3294 17.3417 65.0966 16.7596 64.9715 16.1545C64.8565 15.5415 64.8336 14.9581 64.9027 14.4043L64.9395 14.1094C65.0154 13.502 65.1889 12.9156 65.4601 12.3504C65.7324 11.7762 66.1007 11.2729 66.5651 10.8404C67.0384 10.4091 67.6028 10.0887 68.2581 9.87941C68.9236 9.66227 69.6829 9.60641 70.536 9.71182C71.4251 9.82167 72.1903 10.084 72.8315 10.4989C73.4728 10.9138 73.9587 11.441 74.2892 12.0805C74.6298 12.7123 74.787 13.4257 74.7607 14.2207L72.538 13.9461C72.5242 13.5452 72.4223 13.1925 72.2324 12.8878C72.0424 12.5831 71.7773 12.3326 71.4371 12.1364C71.1058 11.9412 70.7201 11.8165 70.2801 11.7621C69.84 11.7077 69.4399 11.7354 69.0796 11.8451C68.7194 11.9548 68.4053 12.1337 68.1372 12.3818C67.8781 12.631 67.6617 12.9399 67.488 13.3085C67.3244 13.6693 67.2136 14.082 67.1556 14.5465C67.0988 15.0022 67.1047 15.4292 67.1735 15.8278C67.2524 16.2186 67.3907 16.5713 67.5885 16.886C67.7964 17.1929 68.066 17.444 68.3973 17.6391C68.7297 17.8253 69.1204 17.9462 69.5695 18.0016C70.252 18.086 70.8474 17.9917 71.3557 17.7189C71.8729 17.4471 72.2172 17.027 72.3884 16.4585L74.5977 16.7315C74.4276 17.4362 74.1032 18.0629 73.6243 18.6115C73.1556 19.1523 72.5531 19.5587 71.817 19.8306C71.091 20.0946 70.2565 20.1684 69.3135 20.0519Z" fill="white"/>
<path d="M79.116 22.4522C78.5048 22.2277 77.9959 21.9352 77.5895 21.5748C77.1861 21.206 76.88 20.7961 76.6712 20.3451C76.4708 19.8973 76.3641 19.431 76.351 18.9464C76.3411 18.4533 76.4239 17.9703 76.5994 17.4974L76.7075 17.2061C76.8862 16.7247 77.1403 16.2998 77.47 15.9315C77.8112 15.5578 78.2085 15.2671 78.6618 15.0594C79.1237 14.8547 79.6267 14.7468 80.1711 14.7356C80.7186 14.716 81.2852 14.8138 81.871 15.0289C82.4738 15.2503 82.9726 15.5439 83.3674 15.9096C83.7738 16.27 84.0815 16.6757 84.2904 17.1267C84.4992 17.5776 84.6113 18.0554 84.6266 18.5601C84.645 19.0562 84.5649 19.545 84.3862 20.0264L84.2781 20.3177C84.1026 20.7907 83.85 21.2113 83.5204 21.5796C83.1939 21.9395 82.804 22.2234 82.3506 22.4311C81.9058 22.642 81.4096 22.7572 80.8621 22.7769C80.3178 22.788 79.7357 22.6798 79.116 22.4522ZM79.7507 20.7421C80.1497 20.8886 80.5121 20.9258 80.838 20.8535C81.1638 20.7813 81.4511 20.6181 81.6998 20.364C81.9569 20.1129 82.1545 19.8016 82.2924 19.4301C82.4397 19.0331 82.496 18.6604 82.4614 18.3118C82.4299 17.9548 82.3112 17.6377 82.1054 17.3605C81.908 17.0865 81.6184 16.8794 81.2363 16.7391C80.8628 16.6019 80.5073 16.572 80.1698 16.6496C79.8323 16.7272 79.535 16.8915 79.2778 17.1425C79.0323 17.3882 78.8359 17.7095 78.6886 18.1064C78.5507 18.478 78.4932 18.8407 78.5162 19.1947C78.5392 19.5486 78.6552 19.8599 78.8642 20.1286C79.0732 20.3972 79.3687 20.6017 79.7507 20.7421Z" fill="white"/>
<path d="M84.6969 24.5174L88.6444 18.2454L90.1055 19.1555L88.4127 21.8451L88.3092 21.7806C88.7126 21.1397 89.1293 20.6557 89.5593 20.3288C89.9969 20.0066 90.4518 19.8438 90.9237 19.8403C91.3957 19.8369 91.8732 19.9857 92.3565 20.2867L92.437 20.3368C93.1733 20.7955 93.582 21.3846 93.6629 22.1042C93.7564 22.8209 93.4981 23.6638 92.8882 24.6328L90.6335 28.2152L88.7927 27.0686L91.1122 23.3832C91.3235 23.0474 91.3967 22.7107 91.3318 22.3728C91.2668 22.0349 91.0656 21.7609 90.7281 21.5507C90.3829 21.3357 90.0333 21.272 89.6793 21.3595C89.3378 21.4441 89.0565 21.6619 88.8356 22.0129L86.5377 25.664L84.6969 24.5174Z" fill="white"/>
<path d="M94.6286 31.8299C94.0662 31.3346 93.6722 30.8674 93.4466 30.4282C93.227 29.9823 93.1798 29.526 93.3051 29.0593C93.4432 28.5917 93.7612 28.0782 94.259 27.5187L98.5959 22.6453L100.11 23.979L95.7195 28.9131C95.4855 29.176 95.3733 29.4379 95.3829 29.6988C95.4052 29.9589 95.5451 30.2024 95.8026 30.4291L96.6258 31.1541L95.4112 32.5191L94.6286 31.8299ZM95.3679 24.5817L96.4207 23.3988L100.405 26.9076L99.3521 28.0905L95.3679 24.5817Z" fill="white"/>
<path d="M99.5008 37.0512L101.195 35.6563L100.961 35.3754L102.801 33.8599C103.094 33.6188 103.256 33.3687 103.287 33.1094C103.318 32.8502 103.207 32.568 102.953 32.2628C102.826 32.1103 102.655 31.912 102.44 31.6681C102.226 31.4242 102.002 31.1762 101.768 30.9242C101.535 30.6721 101.322 30.4444 101.129 30.2409L102.541 29.0784C102.688 29.2264 102.857 29.4022 103.05 29.6057C103.243 29.8092 103.438 30.0225 103.636 30.2456C103.833 30.4687 104.015 30.6808 104.183 30.8819C104.667 31.4645 104.99 32.0223 105.152 32.5553C105.319 33.0953 105.319 33.61 105.15 34.0993C104.989 34.5829 104.643 35.0428 104.113 35.4791L100.6 38.3723L99.5008 37.0512ZM97.8397 35.3514C97.4993 34.9422 97.2724 34.5213 97.1591 34.0887C97.0516 33.663 97.0617 33.2516 97.1893 32.8543C97.3239 32.4513 97.5829 32.092 97.9663 31.7762C98.3845 31.4318 98.8156 31.258 99.2593 31.2549C99.7101 31.246 100.16 31.384 100.608 31.669C101.064 31.9483 101.502 32.3411 101.924 32.8473L102.936 34.0644L102.006 34.8307L100.984 33.6033C100.742 33.312 100.481 33.1469 100.202 33.108C99.9358 33.0702 99.6806 33.1518 99.4366 33.3527C99.2066 33.5421 99.0818 33.7734 99.0624 34.0465C99.0557 34.3208 99.1735 34.6036 99.4159 34.8949C99.5717 35.0821 99.7415 35.2227 99.9254 35.3167C100.122 35.4119 100.341 35.442 100.582 35.407C100.823 35.3721 101.092 35.2439 101.39 35.0224L101.3 35.7621C100.874 36.0546 100.459 36.2331 100.054 36.2975C99.6554 36.3688 99.2674 36.326 98.8902 36.1692C98.5188 36.0192 98.1686 35.7466 97.8397 35.3514Z" fill="white"/>
<path d="M103.093 43.0192C102.781 42.4607 102.599 41.9227 102.548 41.4051C102.509 40.8909 102.57 40.4087 102.733 39.9582C102.895 39.5078 103.136 39.1063 103.457 38.7536C103.785 38.3966 104.163 38.0999 104.59 37.8635L104.815 37.7388C105.258 37.4936 105.721 37.3302 106.203 37.2485C106.694 37.1624 107.174 37.1695 107.644 37.2697C108.115 37.3699 108.555 37.5742 108.966 37.8825C109.381 38.1987 109.738 38.6243 110.037 39.1592C110.363 39.7413 110.537 40.32 110.558 40.8954C110.588 41.4663 110.476 41.9972 110.222 42.4879C109.968 42.9786 109.589 43.3842 109.085 43.7046L108.049 41.8521C108.324 41.6586 108.503 41.4049 108.586 41.091C108.682 40.7805 108.624 40.4365 108.412 40.0589C108.236 39.7442 108.01 39.5245 107.733 39.3997C107.46 39.2827 107.157 39.2497 106.823 39.3007C106.489 39.3516 106.132 39.4822 105.753 39.6923C105.405 39.885 105.115 40.1073 104.883 40.3593C104.659 40.6069 104.525 40.8767 104.482 41.1688C104.45 41.4644 104.529 41.7813 104.718 42.1195C104.859 42.3713 105.022 42.5596 105.205 42.6845C105.401 42.8129 105.607 42.8844 105.823 42.8991C106.05 42.9173 106.277 42.8791 106.504 42.7845L107.534 44.6252C106.983 44.8993 106.425 45.0125 105.86 44.9648C105.302 44.9128 104.781 44.7221 104.297 44.3929C103.82 44.0592 103.419 43.6013 103.093 43.0192Z" fill="white"/>
<path d="M106.654 50.7346C106.4 50.0318 106.279 49.4338 106.292 48.9409C106.315 48.4448 106.493 48.0219 106.828 47.672C107.175 47.3275 107.701 47.0285 108.408 46.7749L114.562 44.566L115.249 46.4586L109.017 48.695C108.685 48.8142 108.461 48.9905 108.343 49.224C108.238 49.463 108.243 49.7433 108.36 50.0651L108.733 51.094L107.009 51.7127L106.654 50.7346ZM110.796 44.7262L112.29 44.19L114.096 49.1692L112.602 49.7054L110.796 44.7262Z" fill="white"/>
<path d="M108.5 60.7235C108.421 59.7996 108.525 59.0002 108.813 58.3253C109.11 57.6586 109.564 57.1322 110.176 56.746C110.788 56.3598 111.531 56.1296 112.405 56.0554L118.262 55.5586L118.451 57.7652L112.513 58.2689C112.081 58.3056 111.709 58.4184 111.398 58.6074C111.097 58.8046 110.874 59.063 110.729 59.3825C110.584 59.711 110.531 60.0995 110.57 60.5479C110.609 61.0054 110.727 61.3793 110.925 61.6698C111.123 61.9692 111.387 62.1862 111.716 62.3209C112.046 62.4556 112.431 62.5042 112.873 62.4667L118.811 61.963L119 64.1695L113.144 64.6664C112.269 64.7406 111.497 64.6389 110.829 64.3613C110.16 64.0838 109.622 63.6415 109.216 63.0345C108.819 62.4267 108.58 61.6563 108.5 60.7235Z" fill="white"/>
<path d="M108.346 70.3584C108.474 69.3128 108.789 68.5212 109.293 67.9836C109.796 67.4459 110.441 67.2065 111.227 67.2653L110.994 69.1688C110.756 69.1762 110.528 69.2892 110.31 69.5077C110.1 69.7362 109.964 70.0962 109.904 70.5877C109.858 70.963 109.884 71.2789 109.98 71.5354C110.084 71.8019 110.257 71.9499 110.5 71.9792C110.716 72.0053 110.898 71.9321 111.046 71.7597C111.204 71.5883 111.339 71.2646 111.452 70.7885L111.577 70.2187C111.775 69.3448 112.103 68.7089 112.562 68.311C113.02 67.922 113.563 67.7656 114.192 67.8416C114.713 67.9047 115.133 68.087 115.451 68.3885C115.77 68.69 115.991 69.0796 116.115 69.5571C116.238 70.0435 116.264 70.5816 116.192 71.1714C116.076 72.1187 115.771 72.8572 115.278 73.387C114.794 73.9179 114.155 74.1489 113.361 74.0801L113.594 72.1766C113.841 72.1702 114.058 72.0696 114.246 71.8746C114.443 71.6808 114.567 71.3739 114.618 70.9539C114.659 70.6232 114.628 70.352 114.526 70.1402C114.425 69.9284 114.266 69.8094 114.05 69.7833C113.844 69.7583 113.676 69.8242 113.547 69.981C113.419 70.1377 113.309 70.4055 113.217 70.7843L113.092 71.3542C112.883 72.2449 112.546 72.9159 112.081 73.3675C111.615 73.819 111.041 74.0035 110.358 73.9209C109.864 73.8611 109.449 73.6749 109.114 73.3623C108.787 73.0507 108.555 72.6372 108.418 72.1218C108.289 71.6075 108.265 71.0197 108.346 70.3584Z" fill="white"/>
<path d="M109.639 84.9731L111.783 83.5906L113.229 84.14L113.9 86.5923L112.265 86.8384L112.222 85.0585L111.918 84.9428L110.706 86.2456L109.639 84.9731ZM115.671 85.1981L113.396 84.0446L113.153 82.5211L114.95 80.7177L115.968 82.001L114.45 82.9274L114.501 83.2501L116.236 83.6495L115.671 85.1981ZM112.807 79.9033L112.937 82.4392L111.735 83.4133L109.267 82.7644L109.871 81.2303L111.432 82.0838L111.686 81.8768L111.17 80.192L112.807 79.9033Z" fill="white"/>
<path d="M99.344 92.0751C99.8852 91.3648 100.472 90.8475 101.106 90.523C101.746 90.204 102.392 90.0353 103.041 90.017C103.698 90.0042 104.322 90.0956 104.911 90.2913C105.501 90.4995 106.02 90.7723 106.467 91.1094L106.705 91.2889C107.196 91.6587 107.619 92.102 107.974 92.6188C108.337 93.141 108.591 93.7103 108.734 94.3268C108.872 94.9505 108.868 95.5969 108.721 96.2659C108.577 96.9476 108.245 97.6292 107.725 98.3107C107.184 99.021 106.572 99.5481 105.89 99.8921C105.208 100.236 104.506 100.39 103.784 100.354C103.063 100.331 102.364 100.108 101.686 99.687L103.039 97.9114C103.394 98.1005 103.752 98.1896 104.112 98.1789C104.473 98.1681 104.823 98.0655 105.165 97.871C105.501 97.6836 105.802 97.4142 106.07 97.0626C106.338 96.7111 106.515 96.3528 106.6 95.9877C106.685 95.6227 106.687 95.2626 106.605 94.9074C106.518 94.5595 106.358 94.2184 106.125 93.8841C105.893 93.5624 105.589 93.2602 105.214 92.9774C104.847 92.7 104.472 92.4911 104.091 92.3505C103.711 92.2225 103.335 92.1648 102.962 92.1773C102.591 92.2024 102.238 92.3086 101.902 92.4959C101.573 92.6887 101.272 92.9645 100.999 93.3232C100.584 93.8684 100.367 94.4282 100.35 95.0024C100.327 95.5839 100.52 96.0908 100.928 96.5232L99.5835 98.2881C99.0558 97.7884 98.6733 97.195 98.4361 96.5078C98.2007 95.8332 98.1492 95.1109 98.2817 94.341C98.4159 93.5837 98.77 92.8283 99.344 92.0751Z" fill="white"/>
<path d="M92.3377 99.3205C92.8384 98.9058 93.3472 98.6132 93.864 98.4428C94.3866 98.2794 94.8964 98.2202 95.3935 98.2653C95.8836 98.3163 96.3429 98.4571 96.7715 98.6878C97.206 98.9254 97.5853 99.2379 97.9096 99.6253L98.1093 99.864C98.4394 100.258 98.6825 100.69 98.8388 101.158C98.9938 101.638 99.0487 102.126 99.0033 102.62C98.9509 103.121 98.7937 103.608 98.5317 104.083C98.2754 104.565 97.9073 105.004 97.4275 105.402C96.9337 105.811 96.429 106.094 95.9134 106.252C95.3965 106.422 94.8896 106.485 94.3925 106.44C93.8955 106.394 93.4234 106.252 92.9762 106.014C92.5349 105.782 92.1492 105.469 91.8191 105.074L91.6194 104.836C91.2951 104.448 91.0548 104.021 90.8986 103.553C90.7482 103.091 90.6957 102.614 90.741 102.119C90.7795 101.63 90.9268 101.145 91.1831 100.663C91.4451 100.189 91.83 99.7411 92.3377 99.3205ZM93.5102 100.721C93.1834 100.992 92.9701 101.286 92.8703 101.603C92.7705 101.92 92.7692 102.249 92.8664 102.59C92.9566 102.937 93.1292 103.263 93.3839 103.567C93.6561 103.892 93.9526 104.127 94.2735 104.271C94.6002 104.422 94.9356 104.479 95.2797 104.439C95.6169 104.406 95.942 104.26 96.2549 104.001C96.5609 103.747 96.7644 103.456 96.8653 103.126C96.9663 102.796 96.9716 102.458 96.8814 102.111C96.79 101.777 96.6082 101.447 96.3361 101.122C96.0813 100.818 95.794 100.587 95.4743 100.43C95.1546 100.273 94.8255 100.218 94.4872 100.264C94.1488 100.31 93.8232 100.462 93.5102 100.721Z" fill="white"/>
<path d="M87.7564 103.103L91.2554 109.633L89.7341 110.44L88.2336 107.64L88.3414 107.583C88.699 108.25 88.9131 108.85 88.9838 109.384C89.0465 109.922 88.9617 110.396 88.7295 110.804C88.4973 111.213 88.1297 111.551 87.6266 111.818L87.5427 111.862C86.7761 112.269 86.059 112.328 85.3915 112.039C84.7204 111.762 84.1145 111.12 83.5739 110.111L81.5754 106.381L83.492 105.364L85.5479 109.202C85.7352 109.551 85.9923 109.782 86.3191 109.894C86.6459 110.007 86.985 109.97 87.3364 109.783C87.6958 109.593 87.9255 109.323 88.0257 108.974C88.1221 108.637 88.0724 108.286 87.8766 107.921L85.8398 104.119L87.7564 103.103Z" fill="white"/>
<path d="M76.4331 108.017C77.1454 107.78 77.749 107.673 78.2442 107.698C78.7421 107.732 79.1631 107.919 79.5069 108.26C79.8451 108.613 80.1334 109.143 80.3719 109.852L82.4493 116.024L80.5314 116.663L78.4281 110.414C78.3161 110.081 78.1441 109.854 77.9121 109.732C77.6744 109.621 77.3925 109.62 77.0664 109.728L76.0238 110.076L75.442 108.347L76.4331 108.017ZM82.3756 112.275L82.8798 113.773L77.834 115.454L77.3297 113.956L82.3756 112.275Z" fill="white"/>
<path d="M69.4451 109.607L69.809 111.765L70.1705 111.704L70.5658 114.048C70.6288 114.421 70.7652 114.686 70.9751 114.842C71.1851 114.999 71.4864 115.045 71.8791 114.979C72.0754 114.946 72.3335 114.899 72.6533 114.836C72.9731 114.774 73.3011 114.705 73.6372 114.631C73.9734 114.556 74.2783 114.487 74.552 114.423L74.8552 116.221C74.6529 116.273 74.415 116.331 74.1413 116.395C73.8676 116.459 73.5843 116.52 73.2913 116.578C72.9982 116.636 72.7223 116.687 72.4635 116.73C71.7138 116.855 71.0666 116.854 70.522 116.726C69.9684 116.599 69.521 116.34 69.1799 115.95C68.8403 115.569 68.6135 115.04 68.4997 114.366L67.7449 109.891L69.4451 109.607ZM71.7564 109.03C72.283 108.942 72.7628 108.958 73.1959 109.077C73.62 109.198 73.9728 109.413 74.2544 109.722C74.5374 110.04 74.7201 110.443 74.8025 110.931C74.8923 111.464 74.8274 111.922 74.6076 112.305C74.3893 112.698 74.0438 113.016 73.571 113.259C73.0996 113.511 72.5382 113.692 71.8867 113.8L70.3204 114.062L70.1204 112.877L71.7001 112.613C72.075 112.55 72.3493 112.409 72.5231 112.188C72.6895 111.978 72.7465 111.717 72.6941 111.406C72.6447 111.113 72.5061 110.89 72.2783 110.736C72.0431 110.593 71.738 110.553 71.3632 110.615C71.1222 110.655 70.9147 110.731 70.7408 110.842C70.5594 110.964 70.4235 111.137 70.333 111.362C70.2425 111.587 70.219 111.883 70.2626 112.25L69.664 111.803C69.6233 111.289 69.6763 110.842 69.8232 110.462C69.9611 110.083 70.1929 109.77 70.5184 109.524C70.835 109.279 71.2477 109.115 71.7564 109.03Z" fill="white"/>
<path d="M62.406 109.707C63.0484 109.718 63.6076 109.831 64.0836 110.046C64.5503 110.27 64.939 110.565 65.2494 110.93C65.5599 111.296 65.7881 111.705 65.9341 112.158C66.08 112.619 66.1487 113.093 66.1403 113.579L66.1359 113.836C66.1271 114.34 66.0374 114.82 65.8665 115.276C65.6956 115.741 65.4486 116.151 65.1257 116.506C64.8028 116.861 64.4042 117.137 63.9301 117.336C63.447 117.535 62.8978 117.629 62.2825 117.619C61.6129 117.607 61.0225 117.467 60.5113 117.197C59.9999 116.936 59.5944 116.573 59.2947 116.109C58.995 115.645 58.8322 115.115 58.8063 114.52L60.9372 114.557C60.9676 114.891 61.0985 115.172 61.3298 115.401C61.552 115.639 61.8802 115.762 62.3145 115.769C62.6765 115.775 62.9811 115.69 63.2286 115.515C63.4669 115.339 63.6477 115.094 63.7708 114.781C63.8938 114.468 63.9591 114.095 63.9666 113.663C63.9735 113.267 63.9254 112.906 63.8225 112.581C63.7193 112.264 63.5517 112.013 63.3196 111.829C63.0782 111.654 62.763 111.563 62.3739 111.556C62.0844 111.551 61.8392 111.597 61.6384 111.692C61.4285 111.797 61.2631 111.938 61.1424 112.116C61.0124 112.303 60.9318 112.517 60.9004 112.76L58.7831 112.724C58.8208 112.112 59.0021 111.575 59.3269 111.112C59.6516 110.659 60.0785 110.306 60.6079 110.054C61.137 109.811 61.7364 109.695 62.406 109.707Z" fill="white"/>
<path d="M53.8957 108.909C54.635 109.041 55.2158 109.236 55.6382 109.494C56.0589 109.762 56.3379 110.127 56.475 110.59C56.6016 111.061 56.5986 111.664 56.4661 112.4L55.3113 118.806L53.3205 118.451L54.4896 111.965C54.5519 111.619 54.5107 111.337 54.3661 111.12C54.211 110.909 53.9642 110.773 53.6257 110.713L52.5434 110.52L52.8669 108.726L53.8957 108.909ZM57.0552 115.482L56.7749 117.037L51.5372 116.102L51.8175 114.547L57.0552 115.482Z" fill="white"/>
<path d="M44.2608 105.497C45.1043 105.891 45.7477 106.381 46.191 106.967C46.6222 107.556 46.8527 108.211 46.8823 108.931C46.9119 109.652 46.7399 110.407 46.3664 111.197L43.8652 116.488L41.8507 115.546L44.3864 110.181C44.5713 109.79 44.6593 109.414 44.6505 109.051C44.6297 108.693 44.5167 108.372 44.3114 108.087C44.0979 107.798 43.7865 107.558 43.377 107.366C42.9594 107.171 42.5747 107.086 42.2231 107.11C41.8633 107.131 41.5423 107.249 41.2602 107.465C40.978 107.682 40.7425 107.989 40.5538 108.388L38.0181 113.753L36.0035 112.811L38.5046 107.519C38.8781 106.729 39.3531 106.116 39.9295 105.679C40.5059 105.242 41.16 105.001 41.8916 104.955C42.6194 104.918 43.4091 105.098 44.2608 105.497Z" fill="white"/>
<path d="M36.0388 100.581C36.8842 101.215 37.4146 101.884 37.63 102.586C37.8454 103.289 37.7305 103.964 37.2854 104.611L35.7464 103.457C35.8591 103.248 35.8752 102.995 35.7945 102.698C35.7011 102.402 35.4557 102.105 35.0583 101.807C34.7548 101.58 34.4674 101.443 34.196 101.397C33.912 101.353 33.6964 101.428 33.5493 101.623C33.4186 101.795 33.3909 101.989 33.4664 102.203C33.5364 102.425 33.7502 102.703 34.1077 103.039L34.541 103.432C35.2019 104.04 35.5904 104.642 35.7065 105.236C35.8154 105.825 35.6792 106.371 35.2978 106.875C34.9818 107.292 34.6128 107.562 34.1908 107.685C33.7687 107.808 33.319 107.803 32.8415 107.67C32.3568 107.532 31.876 107.284 31.3991 106.927C30.6332 106.352 30.1435 105.72 29.9298 105.03C29.7108 104.347 29.8301 103.681 30.2879 103.032L31.827 104.187C31.7088 104.402 31.6874 104.64 31.7627 104.899C31.8326 105.166 32.0374 105.427 32.377 105.682C32.6443 105.882 32.8956 105.992 33.1308 106.01C33.3661 106.029 33.5491 105.952 33.6798 105.779C33.8051 105.614 33.8318 105.437 33.7599 105.248C33.688 105.058 33.5103 104.829 33.2269 104.56L32.7935 104.167C32.1236 103.541 31.709 102.914 31.5495 102.287C31.39 101.66 31.5173 101.074 31.9314 100.527C32.231 100.132 32.6009 99.8683 33.0411 99.7361C33.4758 99.6112 33.9518 99.6187 34.469 99.7587C34.9808 99.9058 35.5041 100.18 36.0388 100.581Z" fill="white"/>
<path d="M22.6646 94.3815L22.7984 96.9197L21.5983 97.8914L19.1272 97.2457L19.7291 95.7137L21.3008 96.5652L21.5535 96.3607L21.024 94.6652L22.6646 94.3815ZM19.4577 99.4679L21.5978 98.0834L23.0462 98.6343L23.7199 101.084L22.0937 101.321L22.0448 99.5496L21.7385 99.4319L20.5241 100.729L19.4577 99.4679ZM25.4991 99.6429L23.2251 98.4894L22.9769 96.9667L24.7743 95.1632L25.8091 96.4494L24.2862 97.369L24.3399 97.6913L26.0647 98.0881L25.4991 99.6429Z" fill="white"/>
<path d="M21.604 81.9536C21.9525 82.7747 22.1099 83.5392 22.0764 84.247C22.0346 84.9584 21.8594 85.5988 21.5509 86.1681C21.2341 86.7409 20.8435 87.2324 20.3791 87.6425C19.9028 88.0477 19.4062 88.3589 18.8893 88.5761L18.6142 88.6916C18.0473 88.9298 17.45 89.0732 16.8223 89.1219C16.1863 89.174 15.564 89.1081 14.9554 88.924C14.3433 88.7316 13.7824 88.4053 13.2727 87.9451C12.7512 87.4802 12.3232 86.8538 11.9888 86.0659C11.6403 85.2448 11.4865 84.4544 11.5275 83.6945C11.5684 82.9347 11.7848 82.2526 12.1766 81.6482C12.5566 81.0391 13.0993 80.5473 13.8048 80.1728L14.676 82.2254C14.3338 82.4375 14.0775 82.7015 13.9071 83.0174C13.7366 83.3333 13.651 83.6869 13.65 84.0782C13.6456 84.4611 13.7296 84.8558 13.9021 85.2622C14.0746 85.6686 14.2986 85.9996 14.5741 86.2552C14.8496 86.5108 15.1623 86.6921 15.5123 86.7992C15.8587 86.898 16.2358 86.9301 16.6436 86.8956C17.0395 86.8564 17.4542 86.7457 17.8877 86.5636C18.3129 86.385 18.6818 86.1665 18.9946 85.9081C19.2954 85.6449 19.5335 85.3494 19.7087 85.0217C19.8721 84.6893 19.9561 84.3315 19.9605 83.9486C19.9566 83.5691 19.8667 83.172 19.6907 82.7574C19.4231 82.1271 19.0436 81.6611 18.5521 81.3594C18.0571 81.0494 17.5192 80.9626 16.9386 81.099L16.0727 79.0589C16.7713 78.8534 17.4791 78.8199 18.1961 78.9584C18.9012 79.0922 19.556 79.4084 20.1605 79.9069C20.7532 80.4006 21.2343 81.0828 21.604 81.9536Z" fill="white"/>
<path d="M18.8037 72.302C18.9133 72.9409 18.9127 73.5255 18.8018 74.0558C18.6819 74.5876 18.4777 75.056 18.1892 75.4612C17.8992 75.8575 17.5464 76.1823 17.1309 76.4356C16.7064 76.6903 16.2444 76.8601 15.7448 76.945L15.4371 76.9973C14.9286 77.0837 14.4317 77.0768 13.9463 76.9766C13.4504 76.869 12.9988 76.6718 12.5915 76.3848C12.1827 76.089 11.8375 75.7092 11.5559 75.2456C11.2655 74.7836 11.0677 74.2464 10.9625 73.6341C10.8544 73.004 10.861 72.4276 10.9824 71.9046C11.0933 71.3744 11.2931 70.9066 11.5815 70.5015C11.87 70.0963 12.2302 69.7611 12.6621 69.4959C13.0851 69.2323 13.5508 69.0573 14.0592 68.9709L14.367 68.9186C14.8665 68.8338 15.359 68.8414 15.8444 68.9416C16.3209 69.0433 16.7628 69.2376 17.1701 69.5246C17.5759 69.8027 17.924 70.1728 18.2145 70.6349C18.4961 71.0985 18.6925 71.6542 18.8037 72.302ZM16.9973 72.6089C16.9257 72.1918 16.7771 71.8609 16.5514 71.6161C16.3258 71.3713 16.0402 71.2052 15.6947 71.1178C15.3477 71.0215 14.9779 71.0067 14.5854 71.0734C14.1661 71.1446 13.8133 71.2821 13.527 71.486C13.2318 71.6915 13.0149 71.9521 12.8763 72.2678C12.7362 72.5748 12.7004 72.9279 12.7689 73.3272C12.836 73.7176 12.9875 74.0389 13.2236 74.2911C13.4597 74.5432 13.7512 74.7174 14.0983 74.8137C14.4349 74.9027 14.8128 74.9115 15.232 74.8403C15.6246 74.7736 15.9692 74.642 16.2659 74.4455C16.5627 74.2489 16.7759 73.9935 16.9056 73.6793C17.0353 73.365 17.0658 73.0082 16.9973 72.6089Z" fill="white"/>
<path d="M17.8131 66.402L10.3789 66.1409L10.4398 64.427L13.6278 64.539L13.6235 64.6605C12.8638 64.6338 12.234 64.5171 11.7343 64.3104C11.2348 64.0947 10.8655 63.7844 10.6264 63.3797C10.3872 62.9749 10.2776 62.4892 10.2978 61.9224L10.3011 61.8279C10.3318 60.9642 10.64 60.3175 11.2257 59.8876C11.8027 59.4485 12.6655 59.2491 13.8141 59.2895L18.0603 59.4386L17.9836 61.5978L13.6154 61.4444C13.2174 61.4304 12.8877 61.5359 12.6262 61.7609C12.3646 61.986 12.2268 62.2964 12.2128 62.6922C12.1984 63.0971 12.3179 63.4301 12.5712 63.6912C12.8159 63.943 13.1462 64.0762 13.5622 64.0908L17.8897 64.2428L17.8131 66.402Z" fill="white"/>
<path d="M19.2026 54.2039C19.0532 54.9362 18.8439 55.5094 18.5748 55.9235C18.2967 56.3358 17.9233 56.6049 17.4544 56.7307C16.9784 56.8459 16.3724 56.8292 15.6362 56.6805L9.22408 55.386L9.62633 53.4142L16.1183 54.7248C16.4642 54.7947 16.7483 54.7602 16.9705 54.6213C17.1857 54.4719 17.3275 54.2295 17.3959 53.8942L17.6145 52.8223L19.4105 53.1849L19.2026 54.2039ZM12.5254 57.1961L10.9689 56.8819L12.0272 51.6943L13.5836 52.0085L12.5254 57.1961Z" fill="white"/>
<path d="M21.32 47.375L19.26 46.6094L19.1318 46.9509L16.8938 46.1191C16.5377 45.9868 16.239 45.9719 15.9976 46.0744C15.7563 46.1769 15.5659 46.4137 15.4266 46.7847C15.3569 46.9703 15.2693 47.2164 15.1638 47.5231C15.0583 47.8299 14.9538 48.1466 14.8504 48.4734C14.747 48.8001 14.6547 49.0974 14.5735 49.3651L12.8568 48.7271C12.9127 48.5269 12.9813 48.2929 13.0625 48.0251C13.1437 47.7574 13.2323 47.4828 13.3284 47.2014C13.4244 46.9199 13.5183 46.6569 13.6102 46.4124C13.8762 45.704 14.2012 45.1473 14.5852 44.7422C14.9723 44.3287 15.4211 44.0726 15.9315 43.974C16.4334 43.8723 17.0065 43.9411 17.6508 44.1806L21.9233 45.7685L21.32 47.375ZM20.6667 49.6548C20.4799 50.1524 20.2262 50.5578 19.9057 50.8711C19.5883 51.176 19.2247 51.3724 18.8149 51.4604C18.3967 51.5452 17.9544 51.501 17.4882 51.3277C16.9795 51.1386 16.6132 50.8535 16.3892 50.4724C16.1568 50.0881 16.053 49.6315 16.0777 49.1025C16.094 48.5704 16.2177 47.9965 16.4489 47.3809L17.0047 45.9009L18.1364 46.3215L17.5759 47.8142C17.4429 48.1684 17.429 48.4755 17.5341 48.7356C17.634 48.9842 17.8323 49.1636 18.129 49.2738C18.4088 49.3778 18.6725 49.3701 18.9202 49.2508C19.1626 49.1198 19.3503 48.8772 19.4833 48.523C19.5688 48.2954 19.6066 48.0788 19.5969 47.8733C19.5818 47.6563 19.4989 47.4525 19.3482 47.262C19.1976 47.0715 18.9517 46.9032 18.6104 46.7571L19.2996 46.4655C19.767 46.6872 20.1295 46.9565 20.3873 47.2734C20.6482 47.5818 20.8044 47.9377 20.8557 48.3412C20.9103 48.7362 20.8473 49.1741 20.6667 49.6548Z" fill="white"/>
<path d="M24.7386 41.3027C24.407 41.8502 24.0283 42.2748 23.6025 42.5766C23.1736 42.8661 22.7224 43.0528 22.2489 43.1368C21.7754 43.2208 21.3052 43.2122 20.8382 43.111C20.3635 43.0051 19.9169 42.8267 19.4983 42.5758L19.2774 42.4434C18.8433 42.1832 18.4707 41.8652 18.1595 41.4894C17.8405 41.109 17.6077 40.691 17.4611 40.2352C17.3145 39.7795 17.2735 39.2977 17.3381 38.7899C17.4074 38.2744 17.6008 37.7544 17.9184 37.2301C18.264 36.6595 18.6824 36.2218 19.1734 35.9171C19.6566 35.6076 20.1753 35.4403 20.7294 35.4151C21.2835 35.3899 21.8257 35.5153 22.3559 35.7911L21.256 37.6069C20.9505 37.4659 20.6402 37.4375 20.325 37.5218C20.0067 37.5938 19.7355 37.8148 19.5113 38.1849C19.3244 38.4934 19.2455 38.7981 19.2744 39.0992C19.308 39.3927 19.4301 39.6708 19.6407 39.9337C19.8512 40.1965 20.1425 40.4395 20.5146 40.6625C20.8556 40.8669 21.1937 41.0065 21.5288 41.0813C21.8561 41.1514 22.158 41.1326 22.4345 41.0251C22.7078 40.9052 22.945 40.6794 23.1458 40.3479C23.2952 40.1011 23.3787 39.8674 23.3962 39.6466C23.4106 39.4135 23.3707 39.2004 23.2764 39.0072C23.179 38.8017 23.0326 38.6247 22.8374 38.4761L23.9303 36.6718C24.4433 37.0109 24.8197 37.4361 25.0593 37.9476C25.2911 38.4545 25.384 38.9989 25.3379 39.5808C25.284 40.1582 25.0843 40.7321 24.7386 41.3027Z" fill="white"/>
<path d="M29.6959 34.381C29.2105 34.9512 28.7497 35.3533 28.3133 35.5873C27.87 35.8155 27.4125 35.8724 26.9406 35.7581C26.4677 35.631 25.9447 35.326 25.3715 34.8432L20.3785 30.6369L21.6855 29.1014L26.7407 33.3601C27.01 33.5869 27.2757 33.6928 27.5377 33.6776C27.7986 33.6496 28.0402 33.5051 28.2624 33.2441L28.9729 32.4094L30.3714 33.5875L29.6959 34.381ZM22.3955 33.8048L21.1835 32.7837L24.6222 28.7441L25.8342 29.7652L22.3955 33.8048Z" fill="white"/>
<path d="M37.4809 27.7956C36.7164 28.3262 35.9686 28.6366 35.2375 28.7268C34.5086 28.8046 33.823 28.6766 33.1808 28.343C32.5386 28.0093 31.9664 27.4844 31.4642 26.7682L28.1014 21.9727L29.9273 20.7056L33.3366 25.5676C33.5851 25.922 33.8694 26.1857 34.1894 26.3588C34.5116 26.5194 34.8481 26.5823 35.1988 26.5474C35.5569 26.5074 35.9216 26.3587 36.2927 26.1011C36.6712 25.8385 36.9374 25.5494 37.0914 25.234C37.2528 24.9134 37.3097 24.5776 37.2621 24.2265C37.2145 23.8753 37.0638 23.5189 36.8101 23.1571L33.4008 18.2951L35.2266 17.028L38.5894 21.8236C39.0916 22.5398 39.3892 23.2553 39.4822 23.9701C39.5751 24.6849 39.4591 25.3691 39.1341 26.0227C38.8038 26.669 38.2528 27.26 37.4809 27.7956Z" fill="white"/>
<path d="M45.8691 23.1521C44.8948 23.5643 44.0478 23.6879 43.3282 23.5228C42.6085 23.3577 42.078 22.9218 41.7366 22.2152L43.5104 21.4647C43.6358 21.666 43.8481 21.8061 44.1473 21.8849C44.4513 21.9519 44.8323 21.8885 45.2903 21.6947C45.6401 21.5468 45.9026 21.3672 46.0779 21.1561C46.2579 20.9332 46.3001 20.7099 46.2045 20.4862C46.1195 20.2874 45.9648 20.167 45.7403 20.125C45.5123 20.0747 45.1628 20.1199 44.6919 20.2604L44.1335 20.438C43.2736 20.704 42.5558 20.7387 41.9801 20.542C41.4126 20.3419 41.0049 19.9519 40.757 19.372C40.5516 18.8915 40.5006 18.4386 40.6039 18.0134C40.7073 17.5881 40.9359 17.2028 41.2898 16.8574C41.652 16.5085 42.1079 16.2178 42.6576 15.9852C43.5403 15.6117 44.3355 15.5051 45.0433 15.6655C45.7475 15.8175 46.268 16.2528 46.6046 16.9712L44.8308 17.7217C44.7019 17.5121 44.5056 17.3751 44.242 17.3105C43.9748 17.2377 43.6456 17.2841 43.2542 17.4497C42.946 17.58 42.7252 17.742 42.5915 17.9355C42.4579 18.129 42.4336 18.3251 42.5186 18.5239C42.6001 18.7145 42.7412 18.826 42.9419 18.8584C43.1426 18.8909 43.4309 18.8521 43.8067 18.742L44.3651 18.5644C45.2451 18.2997 45.998 18.2551 46.6237 18.4305C47.2495 18.606 47.6969 19.0085 47.9661 19.6381C48.1609 20.0938 48.206 20.5443 48.1014 20.9896C47.9932 21.4267 47.7491 21.8333 47.369 22.2093C46.9853 22.5771 46.4854 22.8913 45.8691 23.1521Z" fill="white"/>
<path d="M57.9504 14.7466L55.6757 13.5894L55.4322 12.0692L57.2327 10.266L58.2634 11.552L56.7348 12.478L56.786 12.798L58.5261 13.1922L57.9504 14.7466ZM55.1342 9.43633L55.2655 11.9725L54.0601 12.943L51.592 12.295L52.201 10.7764L53.7661 11.6222L54.022 11.4176L53.503 9.72224L55.1342 9.43633ZM51.953 14.5487L54.0964 13.1697L55.5453 13.7194L56.2128 16.1706L54.5752 16.4165L54.5388 14.6447L54.2317 14.5293L53.0218 15.815L51.953 14.5487Z" fill="white"/>
<defs>
<linearGradient id="paint0_linear_363_10107" x1="0.325212" y1="63.9141" x2="128" y2="63.9295" gradientUnits="userSpaceOnUse">
<stop stop-color="#A93E17"/>
<stop offset="1" stop-color="#15399A"/>
</linearGradient>
</defs>
</svg>
