<svg width="188" height="51" viewBox="0 0 188 51" fill="none" xmlns="http://www.w3.org/2000/svg">
<circle cx="25" cy="25.4297" r="25" fill="url(#paint0_linear_34_1017)"/>
<path d="M21.5555 11.8975L10.536 30.9923C9.82134 32.2357 9.82134 33.7222 10.536 34.9585C11.2506 36.2019 12.5369 36.9451 13.9733 36.9451H17.6465C19.0615 36.9451 20.3764 36.1876 21.0838 34.9585L21.3411 34.5154C21.4054 34.6655 21.4769 34.8155 21.5627 34.9585C22.2773 36.2019 23.5636 36.9451 25 36.9451H28.6732C30.0881 36.9451 31.403 36.1876 32.1105 34.9585L32.3678 34.5154C32.4321 34.6655 32.5036 34.8155 32.5893 34.9585C33.304 36.2019 34.5903 36.9451 36.0267 36.9451C37.4631 36.9451 38.7494 36.2019 39.464 34.9585C40.1787 33.715 40.1787 32.2286 39.464 30.9923C38.7494 29.7488 37.4631 29.0056 36.0267 29.0056C35.8623 29.0056 35.698 29.0128 35.5336 29.0342L35.7909 28.5911C36.4983 27.3691 36.4983 25.847 35.7909 24.625L33.9543 21.4449C33.2396 20.2014 31.9533 19.4582 30.5169 19.4582C30.3525 19.4582 30.1882 19.4654 30.0238 19.4868L30.2811 19.0437C30.9886 17.8217 30.9886 16.2996 30.2811 15.0776L28.4445 11.9046C27.7299 10.6612 26.4435 9.91797 25.0071 9.91797C23.5708 9.91797 22.2844 10.6612 21.5698 11.9046L21.5555 11.8975ZM36.0124 30.5778C36.8771 30.5778 37.656 31.028 38.0848 31.7784C38.5136 32.5287 38.5207 33.422 38.0848 34.1724C37.6489 34.9227 36.8771 35.3729 36.0124 35.3729C35.1477 35.3729 34.3687 34.9227 33.94 34.1724C33.5041 33.422 33.5041 32.5287 33.94 31.7784C34.3759 31.028 35.1477 30.5778 36.0124 30.5778ZM30.5026 21.0233C31.3673 21.0233 32.1463 21.4735 32.575 22.2238L34.4116 25.4039C34.8404 26.14 34.8404 27.0618 34.4116 27.7979L30.7384 34.1652C30.3097 34.9013 29.5164 35.3658 28.666 35.3658H24.9929C24.1282 35.3658 23.3492 34.9156 22.9204 34.1652C22.4845 33.4149 22.4845 32.5216 22.9204 31.7712L28.4302 22.2167C28.8661 21.4663 29.6379 21.0161 30.5026 21.0161V21.0233ZM24.9929 11.483C25.8576 11.483 26.6365 11.9332 27.0653 12.6836L28.9019 15.8565C29.3306 16.5926 29.3306 17.5144 28.9019 18.2505L27.0653 21.4377L21.5555 30.9851L19.7189 34.1652C19.2901 34.9013 18.4969 35.3658 17.6465 35.3658H13.9733C13.1086 35.3658 12.3297 34.9156 11.9009 34.1652C11.465 33.4149 11.465 32.5216 11.9009 31.7712L22.9204 12.6764C23.3564 11.9261 24.1282 11.4759 24.9929 11.4759V11.483Z" fill="white"/>
<path d="M17.6394 29.5627C17.7609 29.6341 17.8966 29.6699 18.0324 29.6699C18.304 29.6699 18.5684 29.5269 18.7113 29.2768L23.435 21.1015C23.6494 20.7227 23.5208 20.2439 23.1492 20.0296C22.7704 19.8152 22.2916 19.9438 22.0772 20.3154L17.3535 28.4907C17.1391 28.8695 17.2678 29.3483 17.6394 29.5627Z" fill="white"/>
<path d="M27.5657 31.5352C27.6871 31.6067 27.8229 31.6424 27.9587 31.6424C28.2303 31.6424 28.4947 31.4995 28.6376 31.2494L30.9172 27.3046C31.1316 26.9259 31.003 26.4471 30.6314 26.2327C30.2526 26.0183 29.7738 26.1469 29.5595 26.5185L27.2798 30.4633C27.0654 30.842 27.194 31.3208 27.5657 31.5352Z" fill="white"/>
<path d="M62.2044 33.9297V16.4097H68.6604L75.2604 30.7377H76.0764L75.5964 31.1697V16.4097H79.2924V33.9297H72.7884L66.1884 19.6017H65.3724L65.8524 19.1697V33.9297H62.2044ZM88.5558 34.3857C87.4358 34.3857 86.4438 34.1937 85.5798 33.8097C84.7318 33.4257 84.0198 32.9137 83.4438 32.2737C82.8838 31.6177 82.4518 30.8897 82.1478 30.0897C81.8598 29.2737 81.7158 28.4417 81.7158 27.5937V27.1137C81.7158 26.2337 81.8598 25.3937 82.1478 24.5937C82.4518 23.7777 82.8838 23.0497 83.4438 22.4097C84.0038 21.7697 84.6998 21.2657 85.5318 20.8977C86.3798 20.5137 87.3398 20.3217 88.4118 20.3217C89.8198 20.3217 91.0038 20.6417 91.9638 21.2817C92.9398 21.9057 93.6838 22.7297 94.1958 23.7537C94.7078 24.7617 94.9638 25.8657 94.9638 27.0657V28.3617H83.3238V26.1777H92.6358L91.3878 27.1857C91.3878 26.4017 91.2758 25.7297 91.0518 25.1697C90.8278 24.6097 90.4918 24.1857 90.0438 23.8977C89.6118 23.5937 89.0678 23.4417 88.4118 23.4417C87.7398 23.4417 87.1718 23.5937 86.7078 23.8977C86.2438 24.2017 85.8918 24.6497 85.6518 25.2417C85.4118 25.8177 85.2918 26.5297 85.2918 27.3777C85.2918 28.1617 85.4038 28.8497 85.6278 29.4417C85.8518 30.0177 86.2038 30.4657 86.6838 30.7857C87.1638 31.1057 87.7878 31.2657 88.5558 31.2657C89.2598 31.2657 89.8358 31.1297 90.2838 30.8577C90.7318 30.5857 91.0358 30.2497 91.1958 29.8497H94.7238C94.5318 30.7297 94.1558 31.5137 93.5958 32.2017C93.0358 32.8897 92.3318 33.4257 91.4838 33.8097C90.6358 34.1937 89.6598 34.3857 88.5558 34.3857ZM95.4941 33.9297L99.5741 26.8737L99.4781 27.4737L95.6381 20.7777H99.7901L102.166 25.2417H102.55L104.782 20.7777H108.694L105.022 27.5217L105.118 27.0177L109.438 33.9297H105.262L102.43 29.1537H102.046L99.3821 33.9297H95.4941ZM116.774 34.0977C115.446 34.0977 114.374 33.9377 113.558 33.6177C112.742 33.2817 112.142 32.7297 111.758 31.9617C111.39 31.1777 111.206 30.1217 111.206 28.7937V17.2257H114.782V28.9377C114.782 29.5617 114.942 30.0417 115.262 30.3777C115.598 30.6977 116.07 30.8577 116.678 30.8577H118.622V34.0977H116.774ZM109.214 23.5857V20.7777H118.622V23.5857H109.214ZM120.725 33.9297V20.7777H123.773V26.4417H123.557C123.557 25.0977 123.725 23.9777 124.061 23.0817C124.397 22.1857 124.901 21.5137 125.573 21.0657C126.245 20.6017 127.069 20.3697 128.045 20.3697H128.213C129.205 20.3697 130.029 20.6017 130.685 21.0657C131.357 21.5137 131.861 22.1857 132.197 23.0817C132.549 23.9777 132.725 25.0977 132.725 26.4417H131.789C131.789 25.0977 131.957 23.9777 132.293 23.0817C132.645 22.1857 133.157 21.5137 133.829 21.0657C134.501 20.6017 135.325 20.3697 136.301 20.3697H136.469C137.461 20.3697 138.293 20.6017 138.965 21.0657C139.653 21.5137 140.173 22.1857 140.525 23.0817C140.877 23.9777 141.053 25.0977 141.053 26.4417V33.9297H137.213V26.2257C137.213 25.5057 137.021 24.9217 136.637 24.4737C136.269 24.0257 135.741 23.8017 135.053 23.8017C134.365 23.8017 133.821 24.0337 133.421 24.4977C133.021 24.9457 132.821 25.5457 132.821 26.2977V33.9297H128.957V26.2257C128.957 25.5057 128.765 24.9217 128.381 24.4737C128.013 24.0257 127.493 23.8017 126.821 23.8017C126.117 23.8017 125.565 24.0337 125.165 24.4977C124.765 24.9457 124.565 25.5457 124.565 26.2977V33.9297H120.725ZM144.47 33.9297V20.7777H148.31V33.9297H144.47ZM142.718 23.6097V20.7777H148.31V23.6097H142.718ZM145.958 19.4817C145.238 19.4817 144.702 19.2977 144.35 18.9297C144.014 18.5457 143.846 18.0657 143.846 17.4897C143.846 16.8977 144.014 16.4177 144.35 16.0497C144.702 15.6657 145.238 15.4737 145.958 15.4737C146.678 15.4737 147.206 15.6657 147.542 16.0497C147.894 16.4177 148.07 16.8977 148.07 17.4897C148.07 18.0657 147.894 18.5457 147.542 18.9297C147.206 19.2977 146.678 19.4817 145.958 19.4817ZM151.382 33.9297V20.7777H154.43V26.4177H154.214C154.214 25.0737 154.382 23.9537 154.718 23.0577C155.07 22.1617 155.598 21.4897 156.302 21.0417C157.006 20.5937 157.862 20.3697 158.87 20.3697H159.038C160.574 20.3697 161.742 20.8737 162.542 21.8817C163.358 22.8737 163.766 24.3857 163.766 26.4177V33.9297H159.926V26.2017C159.926 25.4977 159.718 24.9217 159.302 24.4737C158.886 24.0257 158.326 23.8017 157.622 23.8017C156.902 23.8017 156.318 24.0337 155.87 24.4977C155.438 24.9457 155.222 25.5377 155.222 26.2737V33.9297H151.382ZM171.982 34.3617C171.054 34.3617 170.206 34.1937 169.438 33.8577C168.686 33.5217 168.03 33.0577 167.47 32.4657C166.91 31.8577 166.478 31.1457 166.174 30.3297C165.886 29.5137 165.742 28.6337 165.742 27.6897V27.1377C165.742 26.1937 165.878 25.3137 166.15 24.4977C166.438 23.6817 166.846 22.9697 167.374 22.3617C167.918 21.7377 168.566 21.2577 169.318 20.9217C170.07 20.5697 170.91 20.3937 171.838 20.3937C172.894 20.3937 173.806 20.6257 174.574 21.0897C175.342 21.5377 175.942 22.2097 176.374 23.1057C176.806 23.9857 177.046 25.0737 177.094 26.3697L176.086 25.4337V16.4097H179.95V33.9297H176.902V28.4817H177.43C177.382 29.7297 177.118 30.7937 176.638 31.6737C176.174 32.5537 175.542 33.2257 174.742 33.6897C173.942 34.1377 173.022 34.3617 171.982 34.3617ZM172.942 31.1457C173.534 31.1457 174.07 31.0177 174.55 30.7617C175.046 30.4897 175.438 30.0977 175.726 29.5857C176.03 29.0737 176.182 28.4577 176.182 27.7377V26.8497C176.182 26.1457 176.03 25.5537 175.726 25.0737C175.422 24.5937 175.022 24.2257 174.526 23.9697C174.03 23.7137 173.494 23.5857 172.918 23.5857C172.278 23.5857 171.702 23.7537 171.19 24.0897C170.694 24.4097 170.302 24.8577 170.014 25.4337C169.726 25.9937 169.582 26.6497 169.582 27.4017C169.582 28.1697 169.726 28.8337 170.014 29.3937C170.302 29.9537 170.702 30.3857 171.214 30.6897C171.726 30.9937 172.302 31.1457 172.942 31.1457Z" fill="white"/>
<path d="M182.353 33.9297V29.6337H186.577V33.9297H182.353Z" fill="#A93E17"/>
<defs>
<linearGradient id="paint0_linear_34_1017" x1="0.127036" y1="25.3961" x2="50" y2="25.4021" gradientUnits="userSpaceOnUse">
<stop stop-color="#A93E17"/>
<stop offset="1" stop-color="#15399A"/>
</linearGradient>
</defs>
</svg>
