<svg width="31" height="30" viewBox="0 0 31 30" fill="none" xmlns="http://www.w3.org/2000/svg">
<g clip-path="url(#clip0_84_2)">
<path d="M5.7475 1.73438C6.52113 1.73438 7.25766 2.0572 7.87275 2.66504C8.28477 3.04481 8.68365 3.45035 9.06399 3.84277C9.25415 4.04531 9.45723 4.24812 9.65374 4.44434L11.3848 6.17284C12.7165 7.5025 12.7165 9.22503 11.3848 10.5547C11.2074 10.7319 11.0302 10.9156 10.8528 11.0928C10.3836 11.5676 9.90173 12.0613 9.38185 12.5361C9.76863 13.3908 10.3008 14.2331 11.0934 15.2334C12.7294 17.2405 14.4352 18.7921 16.3121 19.9824C16.496 20.0964 16.7117 20.2044 16.94 20.3184C17.0985 20.4006 17.2633 20.4827 17.4281 20.5713L19.432 18.5771C20.0725 17.9376 20.8213 17.6016 21.6013 17.6016C22.3875 17.6017 23.1292 17.9437 23.7442 18.583L27.2259 22.0723C27.866 22.7052 28.2019 23.4583 28.202 24.2432C28.202 25.022 27.8723 25.7824 27.2445 26.4346C26.9719 26.7194 26.6927 26.9914 26.42 27.251C26.0206 27.6372 25.6407 27.9986 25.311 28.3975C25.3046 28.41 25.2919 28.4162 25.2855 28.4287C24.3218 29.4733 23.0914 29.9989 21.6267 29.999C21.4999 29.999 21.3599 29.9927 21.2267 29.9863C19.0517 29.847 17.1045 29.03 15.6461 28.3398C11.829 26.4974 8.48761 23.8825 5.71034 20.5713C3.42126 17.8234 1.8866 15.259 0.859328 12.4922C0.440817 11.3652 -0.104594 9.64276 0.0475659 7.79395C0.149025 6.64791 0.611976 5.66006 1.42365 4.8496L3.57922 2.67773L3.59193 2.66504C4.22591 2.05734 4.97406 1.73451 5.7475 1.73438ZM5.76022 3.44433C5.43696 3.44447 5.10743 3.60242 4.79686 3.89354L2.63445 6.05272C2.10817 6.57824 1.82252 7.19282 1.75911 7.93359C1.6641 9.09206 1.87962 10.3203 2.46916 11.8965C3.42668 14.4798 4.87321 16.886 7.03556 19.4883C9.65447 22.6098 12.8062 25.0727 16.3953 26.8076C17.7079 27.4344 19.4579 28.1688 21.3412 28.2891C21.4362 28.2954 21.5376 28.2959 21.6326 28.2959C22.6218 28.2959 23.3766 27.9729 24.017 27.2891C24.4102 26.8269 24.8284 26.415 25.2405 26.0225C25.5132 25.7565 25.7669 25.5159 26.0142 25.25C26.6586 24.5812 26.6613 23.919 26.0151 23.2754L22.5011 19.7666C22.3045 19.5515 21.9814 19.3048 21.5886 19.3047C21.1893 19.3047 20.8467 19.5641 20.6311 19.7793L18.4618 21.9453C18.3539 22.0531 18.0243 22.3817 17.4985 22.3818C17.2892 22.3818 17.0862 22.3312 16.8706 22.2236C16.8452 22.211 16.8197 22.1924 16.7943 22.1797C16.6104 22.0657 16.3947 21.9577 16.1664 21.8438C15.9129 21.7172 15.6467 21.5844 15.3869 21.4199C13.3514 20.1346 11.5056 18.4565 9.75545 16.3037L9.74958 16.2969C8.78584 15.075 8.15083 14.0499 7.70062 12.9609C7.69428 12.9419 7.68838 12.9223 7.68204 12.9033C7.56792 12.5424 7.46637 12.0103 8.01163 11.4658C8.01801 11.4533 8.03131 11.4472 8.04391 11.4346C8.5955 10.9408 9.10257 10.4341 9.63516 9.88965C9.81905 9.71236 9.997 9.52835 10.1809 9.34473C10.8527 8.67371 10.8529 8.05286 10.1809 7.38183L8.44979 5.65331C8.24687 5.44436 8.0439 5.24168 7.84732 5.03906C7.46062 4.64028 7.09266 4.26706 6.70597 3.90624L6.68641 3.88671C6.48347 3.68415 6.15954 3.44433 5.76022 3.44433Z" fill="white"/>
<path d="M15.5447 6.14521C15.6271 5.68305 16.0643 5.37304 16.5335 5.44892C18.5436 5.79083 20.3764 6.74024 21.8285 8.19014C23.2807 9.6401 24.2324 11.4701 24.5748 13.4772C24.6509 13.9457 24.3397 14.3885 23.8706 14.4645L23.7249 14.4772L23.5733 14.4645C23.2269 14.4032 22.9419 14.1341 22.8809 13.7683C22.5955 12.1095 21.8156 10.603 20.6109 9.4001C19.4061 8.19707 17.8966 7.41111 16.2352 7.13252C15.7662 7.05629 15.4623 6.60725 15.5447 6.14521Z" fill="white"/>
<path d="M15.7849 0.710273C15.8673 0.248058 16.3049 -0.0693053 16.7678 0.0130069C20.0778 0.576564 23.09 2.13433 25.4869 4.52766C27.8838 6.92099 29.4439 9.92864 30.0083 13.2337C30.0908 13.6959 29.7729 14.1396 29.31 14.2093L29.1643 14.222L29.0127 14.2083C28.6666 14.1468 28.3824 13.8784 28.3212 13.513C27.8203 10.5625 26.4253 7.87089 24.282 5.73078C22.2727 3.73043 19.7783 2.37581 17.0397 1.80207L16.4881 1.69758C16.0484 1.62025 15.7482 1.23146 15.7751 0.797187L15.7849 0.710273Z" fill="white"/>
</g>
<defs>
<clipPath id="clip0_84_2">
<rect width="31" height="30" fill="white"/>
</clipPath>
</defs>
</svg>
