<svg width="50" height="50" viewBox="0 0 50 50" fill="none" xmlns="http://www.w3.org/2000/svg">
<path d="M24.5353 33.928C33.4113 33.928 40.6067 26.7326 40.6067 17.8566C40.6067 8.98058 33.4113 1.78516 24.5353 1.78516C15.6593 1.78516 8.46387 8.98058 8.46387 17.8566C8.46387 26.7326 15.6593 33.928 24.5353 33.928Z" stroke="#A93E17" stroke-width="2" stroke-linecap="round" stroke-linejoin="round"/>
<path d="M24.5352 25.0006C28.4801 25.0006 31.678 21.8026 31.678 17.8577C31.678 13.9128 28.4801 10.7148 24.5352 10.7148C20.5903 10.7148 17.3923 13.9128 17.3923 17.8577C17.3923 21.8026 20.5903 25.0006 24.5352 25.0006Z" stroke="#A93E17" stroke-width="2" stroke-linecap="round" stroke-linejoin="round"/>
<path d="M21.4281 33.6417L18.2853 46.856C18.2231 47.1072 18.1081 47.3422 17.948 47.5454C17.7879 47.7486 17.5863 47.9154 17.3567 48.0346C17.1144 48.1398 16.853 48.1941 16.5888 48.1941C16.3247 48.1941 16.0633 48.1398 15.821 48.0346L3.96384 42.856C3.71513 42.7384 3.49629 42.5661 3.32373 42.3518C3.15118 42.1375 3.0294 41.887 2.96754 41.6189C2.90568 41.3509 2.90535 41.0723 2.96656 40.8041C3.02778 40.5358 3.14895 40.285 3.32099 40.0703L12.4996 28.5703" stroke="#A93E17" stroke-width="2" stroke-linecap="round" stroke-linejoin="round"/>
<path d="M28.5713 33.4621L31.7856 46.8549C31.8495 47.1103 31.9691 47.3484 32.1358 47.5521C32.3025 47.7559 32.5122 47.9203 32.7499 48.0335C32.9856 48.14 33.2412 48.1951 33.4999 48.1951C33.7585 48.1951 34.0142 48.14 34.2499 48.0335L46.0356 42.8549C46.288 42.7387 46.5099 42.5652 46.6835 42.3482C46.8571 42.1312 46.9777 41.8767 47.0356 41.6049C47.1033 41.339 47.1062 41.0608 47.044 40.7936C46.9819 40.5263 46.8565 40.2779 46.6784 40.0692L37.107 27.8906" stroke="#A93E17" stroke-width="2" stroke-linecap="round" stroke-linejoin="round"/>
</svg>
