<svg width="24" height="24" viewBox="0 0 24 24" fill="none" xmlns="http://www.w3.org/2000/svg">
<g clip-path="url(#clip0_34_633)">
<path d="M2.57146 10.2852H4.28575C4.51308 10.2852 4.73109 10.3755 4.89184 10.5362C5.05259 10.697 5.14289 10.915 5.14289 11.1423V15.428C5.14289 15.6553 5.05259 15.8734 4.89184 16.0341C4.73109 16.1949 4.51308 16.2852 4.28575 16.2852H2.57146C2.11681 16.2852 1.68077 16.1045 1.35928 15.7831C1.03779 15.4616 0.857178 15.0255 0.857178 14.5709V11.9994C0.857178 11.5448 1.03779 11.1088 1.35928 10.7873C1.68077 10.4658 2.11681 10.2852 2.57146 10.2852V10.2852Z" stroke="white" stroke-width="1.5" stroke-linecap="round" stroke-linejoin="round"/>
<path d="M21.4285 16.2852H19.7143C19.4869 16.2852 19.2689 16.1949 19.1082 16.0341C18.9474 15.8734 18.8571 15.6553 18.8571 15.428V11.1423C18.8571 10.915 18.9474 10.697 19.1082 10.5362C19.2689 10.3755 19.4869 10.2852 19.7143 10.2852H21.4285C21.8832 10.2852 22.3192 10.4658 22.6407 10.7873C22.9622 11.1088 23.1428 11.5448 23.1428 11.9994V14.5709C23.1428 15.0255 22.9622 15.4616 22.6407 15.7831C22.3192 16.1045 21.8832 16.2852 21.4285 16.2852V16.2852Z" stroke="white" stroke-width="1.5" stroke-linecap="round" stroke-linejoin="round"/>
<path d="M16.2856 20.9994C17.195 20.9994 18.067 20.6382 18.71 19.9952C19.353 19.3523 19.7142 18.4802 19.7142 17.5709V16.2852" stroke="white" stroke-width="1.5" stroke-linecap="round" stroke-linejoin="round"/>
<path d="M14.143 18.8555C14.7113 18.8555 15.2564 19.0812 15.6582 19.4831C16.0601 19.885 16.2859 20.43 16.2859 20.9983C16.2859 21.5666 16.0601 22.1117 15.6582 22.5136C15.2564 22.9154 14.7113 23.1412 14.143 23.1412H11.5716C11.0032 23.1412 10.4582 22.9154 10.0563 22.5136C9.65448 22.1117 9.42871 21.5666 9.42871 20.9983C9.42871 20.43 9.65448 19.885 10.0563 19.4831C10.4582 19.0812 11.0032 18.8555 11.5716 18.8555H14.143Z" stroke="white" stroke-width="1.5" stroke-linecap="round" stroke-linejoin="round"/>
<path d="M4.28564 10.284V8.56975C4.28564 6.5238 5.0984 4.56164 6.54511 3.11493C7.99182 1.66822 9.95397 0.855469 11.9999 0.855469C14.0459 0.855469 16.008 1.66822 17.4548 3.11493C18.9015 4.56164 19.7142 6.5238 19.7142 8.56975V10.284" stroke="white" stroke-width="1.5" stroke-linecap="round" stroke-linejoin="round"/>
<path d="M9.42871 6.85547V9.4269" stroke="white" stroke-width="1.5" stroke-linecap="round" stroke-linejoin="round"/>
<path d="M14.5715 6.85547V9.4269" stroke="white" stroke-width="1.5" stroke-linecap="round" stroke-linejoin="round"/>
<path d="M9.42871 12.8555C9.42871 15.1355 14.5716 15.1355 14.5716 12.8555" stroke="white" stroke-width="1.5" stroke-linecap="round" stroke-linejoin="round"/>
</g>
<defs>
<clipPath id="clip0_34_633">
<rect width="24" height="24" fill="white"/>
</clipPath>
</defs>
</svg>
