<svg width="50" height="50" viewBox="0 0 50 50" fill="none" xmlns="http://www.w3.org/2000/svg">
<path d="M30.3571 17.8577C32.3295 17.8577 33.9285 16.2587 33.9285 14.2863C33.9285 12.3138 32.3295 10.7148 30.3571 10.7148C28.3847 10.7148 26.7857 12.3138 26.7857 14.2863C26.7857 16.2587 28.3847 17.8577 30.3571 17.8577Z" stroke="#A93E17" stroke-width="1.5" stroke-linecap="round" stroke-linejoin="round"/>
<path d="M16.0714 35.7121C17.0576 35.7121 17.8571 34.9126 17.8571 33.9263C17.8571 32.9401 17.0576 32.1406 16.0714 32.1406C15.0852 32.1406 14.2857 32.9401 14.2857 33.9263C14.2857 34.9126 15.0852 35.7121 16.0714 35.7121Z" stroke="#A93E17" stroke-width="1.5" stroke-linecap="round" stroke-linejoin="round"/>
<path d="M16.0714 23.2132C18.0438 23.2132 19.6428 21.6142 19.6428 19.6417C19.6428 17.6693 18.0438 16.0703 16.0714 16.0703C14.0989 16.0703 12.4999 17.6693 12.4999 19.6417C12.4999 21.6142 14.0989 23.2132 16.0714 23.2132Z" stroke="#A93E17" stroke-width="1.5" stroke-linecap="round" stroke-linejoin="round"/>
<path d="M34 43.8566C33.9602 43.1638 33.7194 42.4977 33.3071 41.9396C32.8949 41.3814 32.329 40.9555 31.6785 40.7137C30.0632 40.1828 28.6902 39.0931 27.8065 37.6404C26.9227 36.1878 26.5862 34.4675 26.8573 32.7889C27.1285 31.1103 27.9896 29.5835 29.2858 28.483C30.5819 27.3825 32.2282 26.7805 33.9285 26.7852H40.6071C41.7526 26.7884 42.882 26.516 43.9001 25.9911C44.9182 25.4662 45.7952 24.7041 46.457 23.7692C47.1188 22.8343 47.5461 21.7539 47.7027 20.6192C47.8594 19.4845 47.7408 18.3287 47.3571 17.2495C45.9366 13.2386 43.4411 9.69535 40.1432 7.00676C36.8453 4.31816 32.8719 2.58767 28.6572 2.00435C24.4424 1.42103 20.1484 2.00732 16.2443 3.69916C12.3401 5.391 8.97608 8.12331 6.51965 11.5976C4.06322 15.0718 2.60891 19.1544 2.3156 23.3992C2.0223 27.644 2.90128 31.8878 4.85653 35.6669C6.81177 39.446 9.76805 42.6151 13.4024 44.8278C17.0367 47.0405 21.2093 48.2118 25.4642 48.2137C27.5655 48.2196 29.6573 47.9311 31.6785 47.3566C32.4209 47.1486 33.0638 46.6807 33.4899 46.0382C33.9161 45.3957 34.0971 44.6214 34 43.8566V43.8566Z" stroke="#A93E17" stroke-width="1.5" stroke-linecap="round" stroke-linejoin="round"/>
</svg>
