<svg width="50" height="50" viewBox="0 0 50 50" fill="none" xmlns="http://www.w3.org/2000/svg">
<path d="M18.6785 8.03516L20.2143 4.07087C20.4733 3.39967 20.9289 2.82234 21.5216 2.41449C22.1142 2.00663 22.8163 1.78728 23.5357 1.78516H26.4643C27.1837 1.78728 27.8857 2.00663 28.4784 2.41449C29.071 2.82234 29.5267 3.39967 29.7857 4.07087L31.3214 8.03516L36.5357 11.0352L40.75 10.3923C41.4517 10.297 42.1659 10.4126 42.8018 10.7242C43.4377 11.0358 43.9667 11.5294 44.3214 12.1423L45.75 14.6423C46.116 15.265 46.2847 15.984 46.2337 16.7045C46.1827 17.425 45.9144 18.1131 45.4643 18.678L42.8571 21.9994V27.9994L45.5357 31.3209C45.9858 31.8858 46.2541 32.5739 46.3051 33.2944C46.3561 34.0149 46.1875 34.7339 45.8214 35.3566L44.3928 37.8566C44.0381 38.4695 43.5092 38.9631 42.8733 39.2747C42.2373 39.5863 41.5231 39.7018 40.8214 39.6066L36.6071 38.9637L31.3928 41.9637L29.8571 45.928C29.5981 46.5992 29.1425 47.1765 28.5498 47.5844C27.9571 47.9922 27.2551 48.2116 26.5357 48.2137H23.5357C22.8163 48.2116 22.1142 47.9922 21.5216 47.5844C20.9289 47.1765 20.4733 46.5992 20.2143 45.928L18.6785 41.9637L13.4643 38.9637L9.24998 39.6066C8.54825 39.7018 7.83405 39.5863 7.19813 39.2747C6.5622 38.9631 6.03327 38.4695 5.67855 37.8566L4.24998 35.3566C3.88391 34.7339 3.71525 34.0149 3.76626 33.2944C3.81727 32.5739 4.08555 31.8858 4.53569 31.3209L7.14283 27.9994V21.9994L4.46426 18.678C4.01412 18.1131 3.74584 17.425 3.69483 16.7045C3.64382 15.984 3.81248 15.265 4.17855 14.6423L5.60712 12.1423C5.96185 11.5294 6.49078 11.0358 7.1267 10.7242C7.76262 10.4126 8.47682 10.297 9.17855 10.3923L13.3928 11.0352L18.6785 8.03516ZM17.8571 24.9994C17.8571 26.4122 18.276 27.7932 19.0609 28.9678C19.8458 30.1424 20.9613 31.058 22.2665 31.5986C23.5717 32.1392 25.0079 32.2807 26.3935 32.0051C27.7791 31.7294 29.0518 31.0491 30.0507 30.0502C31.0497 29.0513 31.73 27.7785 32.0056 26.3929C32.2812 25.0074 32.1397 23.5712 31.5991 22.266C31.0585 20.9608 30.143 19.8452 28.9683 19.0604C27.7937 18.2755 26.4127 17.8566 25 17.8566C23.1056 17.8566 21.2888 18.6091 19.9492 19.9487C18.6097 21.2882 17.8571 23.105 17.8571 24.9994V24.9994Z" stroke="#A93E17" stroke-width="1.5" stroke-linecap="round" stroke-linejoin="round"/>
</svg>
