<svg width="30" height="30" viewBox="0 0 30 30" fill="none" xmlns="http://www.w3.org/2000/svg">
<g clip-path="url(#clip0_34_1101)">
<path d="M14.9999 11.7846C22.6924 11.7846 28.9284 9.38612 28.9284 6.42745C28.9284 3.46879 22.6924 1.07031 14.9999 1.07031C7.30732 1.07031 1.07129 3.46879 1.07129 6.42745C1.07129 9.38612 7.30732 11.7846 14.9999 11.7846Z" stroke="white" stroke-width="1.5" stroke-linecap="round" stroke-linejoin="round"/>
<path d="M1.07129 6.42578V23.5686C1.07129 26.5258 7.307 28.9258 14.9999 28.9258C22.6927 28.9258 28.9284 26.5258 28.9284 23.5686V6.42578" stroke="white" stroke-width="1.5" stroke-linecap="round" stroke-linejoin="round"/>
<path d="M28.9284 15C28.9284 17.9571 22.6927 20.3571 14.9999 20.3571C7.307 20.3571 1.07129 17.9571 1.07129 15" stroke="white" stroke-width="1.5" stroke-linecap="round" stroke-linejoin="round"/>
</g>
<defs>
<clipPath id="clip0_34_1101">
<rect width="30" height="30" fill="white"/>
</clipPath>
</defs>
</svg>
