<svg width="24" height="24" viewBox="0 0 24 24" fill="none" xmlns="http://www.w3.org/2000/svg">
<mask id="path-1-inside-1_34_950" fill="white">
<path d="M21.8906 3.5625H2.10938C0.943922 3.5625 0 4.51228 0 5.67188V18.3281C0 19.4946 0.950859 20.4375 2.10938 20.4375H21.8906C23.0463 20.4375 24 19.4986 24 18.3281V5.67188C24 4.51434 23.0598 3.5625 21.8906 3.5625ZM21.5952 4.96875C21.1642 5.39742 13.7476 12.775 13.4916 13.0297C13.0931 13.4281 12.5634 13.6475 12 13.6475C11.4366 13.6475 10.9069 13.4281 10.5071 13.0284C10.3349 12.8571 3.00014 5.56097 2.40478 4.96875H21.5952ZM1.40625 18.0419V5.95898L7.48303 12.0037L1.40625 18.0419ZM2.40567 19.0312L8.48006 12.9955L9.51408 14.0241C10.1781 14.6881 11.061 15.0538 12 15.0538C12.939 15.0538 13.8219 14.6881 14.4846 14.0254L15.5199 12.9955L21.5943 19.0312H2.40567ZM22.5938 18.0419L16.517 12.0037L22.5938 5.95898V18.0419Z"/>
</mask>
<path d="M21.5952 4.96875L22.653 6.03224L25.2303 3.46875H21.5952V4.96875ZM13.4916 13.0297L12.4337 11.9662L12.4309 11.969L13.4916 13.0297ZM10.5071 13.0284L11.5677 11.9677L11.565 11.965L10.5071 13.0284ZM2.40478 4.96875V3.46875H-1.23013L1.34693 6.03221L2.40478 4.96875ZM1.40625 18.0419H-0.09375V21.647L2.46352 19.1059L1.40625 18.0419ZM1.40625 5.95898L2.4641 4.89553L-0.09375 2.35115V5.95898H1.40625ZM7.48303 12.0037L8.5403 13.0678L9.61056 12.0043L8.54089 10.9403L7.48303 12.0037ZM2.40567 19.0312L1.3484 17.9672L-1.23205 20.5312H2.40567V19.0312ZM8.48006 12.9955L9.53792 11.932L8.48065 10.8803L7.42279 11.9314L8.48006 12.9955ZM9.51408 14.0241L10.5747 12.9634L10.5719 12.9606L9.51408 14.0241ZM14.4846 14.0254L13.4267 12.9619L13.4239 12.9647L14.4846 14.0254ZM15.5199 12.9955L16.5772 11.9314L15.5193 10.8803L14.4621 11.932L15.5199 12.9955ZM21.5943 19.0312V20.5312H25.232L22.6516 17.9672L21.5943 19.0312ZM22.5938 18.0419L21.5365 19.1059L24.0938 21.647V18.0419H22.5938ZM16.517 12.0037L15.4591 10.9403L14.3894 12.0043L15.4597 13.0678L16.517 12.0037ZM22.5938 5.95898H24.0938V2.35115L21.5359 4.89553L22.5938 5.95898ZM21.8906 3.5625V2.0625H2.10938V3.5625V5.0625H21.8906V3.5625ZM2.10938 3.5625V2.0625C0.112785 2.0625 -1.5 3.68657 -1.5 5.67188H0H1.5C1.5 5.338 1.77506 5.0625 2.10938 5.0625V3.5625ZM0 5.67188H-1.5V18.3281H0H1.5V5.67188H0ZM0 18.3281H-1.5C-1.5 20.3267 0.126122 21.9375 2.10938 21.9375V20.4375V18.9375C1.7756 18.9375 1.5 18.6625 1.5 18.3281H0ZM2.10938 20.4375V21.9375H21.8906V20.4375V18.9375H2.10938V20.4375ZM21.8906 20.4375V21.9375C23.8679 21.9375 25.5 20.3338 25.5 18.3281H24H22.5C22.5 18.6633 22.2247 18.9375 21.8906 18.9375V20.4375ZM24 18.3281H25.5V5.67188H24H22.5V18.3281H24ZM24 5.67188H25.5C25.5 3.69132 23.8937 2.0625 21.8906 2.0625V3.5625V5.0625C22.226 5.0625 22.5 5.33736 22.5 5.67188H24ZM21.5952 4.96875L20.5374 3.90526C20.1065 4.33388 12.6897 11.7116 12.4337 11.9662L13.4916 13.0297L14.5494 14.0932C14.8056 13.8383 22.222 6.46096 22.653 6.03224L21.5952 4.96875ZM13.4916 13.0297L12.4309 11.969C12.3138 12.0861 12.1657 12.1475 12 12.1475V13.6475V15.1475C12.9612 15.1475 13.8725 14.7701 14.5522 14.0904L13.4916 13.0297ZM12 13.6475V12.1475C11.8351 12.1475 11.6867 12.0866 11.5677 11.9677L10.5071 13.0284L9.44653 14.0891C10.127 14.7695 11.038 15.1475 12 15.1475V13.6475ZM10.5071 13.0284L11.565 11.965C11.3928 11.7936 4.05796 4.49748 3.46263 3.90529L2.40478 4.96875L1.34693 6.03221C1.94232 6.62446 9.27704 13.9205 9.44922 14.0918L10.5071 13.0284ZM2.40478 4.96875V6.46875H21.5952V4.96875V3.46875H2.40478V4.96875ZM1.40625 18.0419H2.90625V5.95898H1.40625H-0.09375V18.0419H1.40625ZM1.40625 5.95898L0.348395 7.02244L6.42518 13.0672L7.48303 12.0037L8.54089 10.9403L2.4641 4.89553L1.40625 5.95898ZM7.48303 12.0037L6.42576 10.9397L0.348977 16.9779L1.40625 18.0419L2.46352 19.1059L8.5403 13.0678L7.48303 12.0037ZM2.40567 19.0312L3.46294 20.0953L9.53733 14.0595L8.48006 12.9955L7.42279 11.9314L1.3484 17.9672L2.40567 19.0312ZM8.48006 12.9955L7.4222 14.0589L8.45622 15.0875L9.51408 14.0241L10.5719 12.9606L9.53792 11.932L8.48006 12.9955ZM9.51408 14.0241L8.45342 15.0847C9.39876 16.0301 10.6631 16.5538 12 16.5538V15.0538V13.5538C11.4588 13.5538 10.9575 13.3461 10.5747 12.9634L9.51408 14.0241ZM12 15.0538V16.5538C13.3364 16.5538 14.6009 16.0304 15.5453 15.086L14.4846 14.0254L13.4239 12.9647C13.0428 13.3458 12.5417 13.5538 12 13.5538V15.0538ZM14.4846 14.0254L15.5425 15.0888L16.5778 14.0589L15.5199 12.9955L14.4621 11.932L13.4267 12.9619L14.4846 14.0254ZM15.5199 12.9955L14.4627 14.0595L20.5371 20.0953L21.5943 19.0312L22.6516 17.9672L16.5772 11.9314L15.5199 12.9955ZM21.5943 19.0312V17.5312H2.40567V19.0312V20.5312H21.5943V19.0312ZM22.5938 18.0419L23.651 16.9779L17.5742 10.9397L16.517 12.0037L15.4597 13.0678L21.5365 19.1059L22.5938 18.0419ZM16.517 12.0037L17.5748 13.0672L23.6516 7.02244L22.5938 5.95898L21.5359 4.89553L15.4591 10.9403L16.517 12.0037ZM22.5938 5.95898H21.0938V18.0419H22.5938H24.0938V5.95898H22.5938Z" fill="white" mask="url(#path-1-inside-1_34_950)"/>
</svg>
