<svg width="30" height="30" viewBox="0 0 30 30" fill="none" xmlns="http://www.w3.org/2000/svg">
<g clip-path="url(#clip0_34_1073)">
<path d="M14.9999 28.9275C22.6924 28.9275 28.9284 22.6914 28.9284 14.9989C28.9284 7.30635 22.6924 1.07031 14.9999 1.07031C7.30732 1.07031 1.07129 7.30635 1.07129 14.9989C1.07129 22.6914 7.30732 28.9275 14.9999 28.9275Z" stroke="white" stroke-width="1.5" stroke-linecap="round" stroke-linejoin="round"/>
<path d="M1.07129 15H28.9284" stroke="white" stroke-width="1.5" stroke-linecap="round" stroke-linejoin="round"/>
<path d="M20.3571 14.9989C20.094 20.0924 18.2178 24.9703 15 28.9275C11.7821 24.9703 9.90596 20.0924 9.64282 14.9989C9.90596 9.90533 11.7821 5.02742 15 1.07031C18.2178 5.02742 20.094 9.90533 20.3571 14.9989V14.9989Z" stroke="white" stroke-width="1.5" stroke-linecap="round" stroke-linejoin="round"/>
</g>
<defs>
<clipPath id="clip0_34_1073">
<rect width="30" height="30" fill="white"/>
</clipPath>
</defs>
</svg>
