<svg width="100" height="100" viewBox="0 0 100 100" fill="none" xmlns="http://www.w3.org/2000/svg">
<path d="M53.3572 49.2873C52.2977 49.7473 51.1551 49.9847 50 49.9847C48.845 49.9847 47.7023 49.7473 46.6429 49.2873L5.92862 30.4301C5.26749 30.0967 4.71189 29.5862 4.3237 28.9557C3.93552 28.3251 3.72998 27.5992 3.72998 26.8587C3.72998 26.1182 3.93552 25.3923 4.3237 24.7617C4.71189 24.1312 5.26749 23.6207 5.92862 23.2873L46.6429 4.28728C47.7023 3.82723 48.845 3.58984 50 3.58984C51.1551 3.58984 52.2977 3.82723 53.3572 4.28728L94.0715 23.1444C94.7326 23.4779 95.2882 23.9883 95.6764 24.6189C96.0646 25.2494 96.2701 25.9754 96.2701 26.7159C96.2701 27.4563 96.0646 28.1823 95.6764 28.8128C95.2882 29.4434 94.7326 29.9538 94.0715 30.2873L53.3572 49.2873Z" stroke="url(#paint0_linear_1713_9103)" stroke-width="2" stroke-linecap="round" stroke-linejoin="round"/>
<path d="M96.4284 52.5L52.857 72.5714C51.9264 72.9959 50.9155 73.2156 49.8927 73.2156C48.8699 73.2156 47.859 72.9959 46.9284 72.5714L3.57129 52.5" stroke="url(#paint1_linear_1713_9103)" stroke-width="2" stroke-linecap="round" stroke-linejoin="round"/>
<path d="M96.4284 75.7148L52.857 95.7863C51.9264 96.2107 50.9155 96.4304 49.8927 96.4304C48.8699 96.4304 47.859 96.2107 46.9284 95.7863L3.57129 75.7148" stroke="url(#paint2_linear_1713_9103)" stroke-width="2" stroke-linecap="round" stroke-linejoin="round"/>
<defs>
<linearGradient id="paint0_linear_1713_9103" x1="3.9651" y1="26.7561" x2="96.2701" y2="26.7784" gradientUnits="userSpaceOnUse">
<stop stop-color="#A93E17"/>
<stop offset="1" stop-color="#15399A"/>
</linearGradient>
<linearGradient id="paint1_linear_1713_9103" x1="3.80721" y1="62.8439" x2="96.4284" y2="62.894" gradientUnits="userSpaceOnUse">
<stop stop-color="#A93E17"/>
<stop offset="1" stop-color="#15399A"/>
</linearGradient>
<linearGradient id="paint2_linear_1713_9103" x1="3.80721" y1="86.0587" x2="96.4284" y2="86.1089" gradientUnits="userSpaceOnUse">
<stop stop-color="#A93E17"/>
<stop offset="1" stop-color="#15399A"/>
</linearGradient>
</defs>
</svg>
