<svg width="188" height="50" viewBox="0 0 188 50" fill="none" xmlns="http://www.w3.org/2000/svg">
<circle cx="25" cy="25" r="25" fill="url(#paint0_linear_430_790)"/>
<path d="M21.5555 11.4678L10.536 30.5626C9.82134 31.806 9.82134 33.2925 10.536 34.5288C11.2506 35.7722 12.5369 36.5154 13.9733 36.5154H17.6465C19.0615 36.5154 20.3764 35.7579 21.0838 34.5288L21.3411 34.0857C21.4054 34.2358 21.4769 34.3858 21.5627 34.5288C22.2773 35.7722 23.5636 36.5154 25 36.5154H28.6732C30.0881 36.5154 31.403 35.7579 32.1105 34.5288L32.3678 34.0857C32.4321 34.2358 32.5036 34.3858 32.5893 34.5288C33.304 35.7722 34.5903 36.5154 36.0267 36.5154C37.4631 36.5154 38.7494 35.7722 39.464 34.5288C40.1787 33.2853 40.1787 31.7989 39.464 30.5626C38.7494 29.3192 37.4631 28.5759 36.0267 28.5759C35.8623 28.5759 35.698 28.5831 35.5336 28.6045L35.7909 28.1615C36.4983 26.9394 36.4983 25.4173 35.7909 24.1953L33.9543 21.0152C33.2396 19.7717 31.9533 19.0285 30.5169 19.0285C30.3525 19.0285 30.1882 19.0357 30.0238 19.0571L30.2811 18.6141C30.9886 17.392 30.9886 15.8699 30.2811 14.6479L28.4445 11.4749C27.7299 10.2315 26.4435 9.48828 25.0071 9.48828C23.5708 9.48828 22.2844 10.2315 21.5698 11.4749L21.5555 11.4678ZM36.0124 30.1481C36.8771 30.1481 37.656 30.5983 38.0848 31.3487C38.5136 32.099 38.5207 32.9923 38.0848 33.7427C37.6489 34.493 36.8771 34.9433 36.0124 34.9433C35.1477 34.9433 34.3687 34.493 33.94 33.7427C33.5041 32.9923 33.5041 32.099 33.94 31.3487C34.3759 30.5983 35.1477 30.1481 36.0124 30.1481ZM30.5026 20.5936C31.3673 20.5936 32.1463 21.0438 32.575 21.7941L34.4116 24.9742C34.8404 25.7103 34.8404 26.6322 34.4116 27.3682L30.7384 33.7355C30.3097 34.4716 29.5164 34.9361 28.666 34.9361H24.9929C24.1282 34.9361 23.3492 34.4859 22.9204 33.7355C22.4845 32.9852 22.4845 32.0919 22.9204 31.3415L28.4302 21.787C28.8661 21.0366 29.6379 20.5864 30.5026 20.5864V20.5936ZM24.9929 11.0533C25.8576 11.0533 26.6365 11.5035 27.0653 12.2539L28.9019 15.4268C29.3306 16.1629 29.3306 17.0848 28.9019 17.8208L27.0653 21.008L21.5555 30.5555L19.7189 33.7355C19.2901 34.4716 18.4969 34.9361 17.6465 34.9361H13.9733C13.1086 34.9361 12.3297 34.4859 11.9009 33.7355C11.465 32.9852 11.465 32.0919 11.9009 31.3415L22.9204 12.2467C23.3564 11.4964 24.1282 11.0462 24.9929 11.0462V11.0533Z" fill="white"/>
<path d="M17.6393 29.133C17.7608 29.2044 17.8966 29.2402 18.0324 29.2402C18.3039 29.2402 18.5683 29.0973 18.7112 28.8471L23.4349 20.6718C23.6493 20.2931 23.5207 19.8143 23.1491 19.5999C22.7703 19.3855 22.2915 19.5141 22.0771 19.8857L17.3535 28.061C17.1391 28.4398 17.2677 28.9186 17.6393 29.133Z" fill="white"/>
<path d="M27.5656 31.1055C27.687 31.177 27.8228 31.2127 27.9586 31.2127C28.2302 31.2127 28.4946 31.0698 28.6375 30.8197L30.9171 26.8749C31.1315 26.4962 31.0029 26.0174 30.6313 25.803C30.2525 25.5886 29.7737 25.7172 29.5594 26.0888L27.2797 30.0336C27.0653 30.4123 27.1939 30.8911 27.5656 31.1055Z" fill="white"/>
<path d="M62.2044 33.5V15.98H68.6604L75.2604 30.308H76.0764L75.5964 30.74V15.98H79.2924V33.5H72.7884L66.1884 19.172H65.3724L65.8524 18.74V33.5H62.2044ZM88.5558 33.956C87.4358 33.956 86.4438 33.764 85.5798 33.38C84.7318 32.996 84.0198 32.484 83.4438 31.844C82.8838 31.188 82.4518 30.46 82.1478 29.66C81.8598 28.844 81.7158 28.012 81.7158 27.164V26.684C81.7158 25.804 81.8598 24.964 82.1478 24.164C82.4518 23.348 82.8838 22.62 83.4438 21.98C84.0038 21.34 84.6998 20.836 85.5318 20.468C86.3798 20.084 87.3398 19.892 88.4118 19.892C89.8198 19.892 91.0038 20.212 91.9638 20.852C92.9398 21.476 93.6838 22.3 94.1958 23.324C94.7078 24.332 94.9638 25.436 94.9638 26.636V27.932H83.3238V25.748H92.6358L91.3878 26.756C91.3878 25.972 91.2758 25.3 91.0518 24.74C90.8278 24.18 90.4918 23.756 90.0438 23.468C89.6118 23.164 89.0678 23.012 88.4118 23.012C87.7398 23.012 87.1718 23.164 86.7078 23.468C86.2438 23.772 85.8918 24.22 85.6518 24.812C85.4118 25.388 85.2918 26.1 85.2918 26.948C85.2918 27.732 85.4038 28.42 85.6278 29.012C85.8518 29.588 86.2038 30.036 86.6838 30.356C87.1638 30.676 87.7878 30.836 88.5558 30.836C89.2598 30.836 89.8358 30.7 90.2838 30.428C90.7318 30.156 91.0358 29.82 91.1958 29.42H94.7238C94.5318 30.3 94.1558 31.084 93.5958 31.772C93.0358 32.46 92.3318 32.996 91.4838 33.38C90.6358 33.764 89.6598 33.956 88.5558 33.956ZM95.4941 33.5L99.5741 26.444L99.4781 27.044L95.6381 20.348H99.7901L102.166 24.812H102.55L104.782 20.348H108.694L105.022 27.092L105.118 26.588L109.438 33.5H105.262L102.43 28.724H102.046L99.3821 33.5H95.4941ZM116.774 33.668C115.446 33.668 114.374 33.508 113.558 33.188C112.742 32.852 112.142 32.3 111.758 31.532C111.39 30.748 111.206 29.692 111.206 28.364V16.796H114.782V28.508C114.782 29.132 114.942 29.612 115.262 29.948C115.598 30.268 116.07 30.428 116.678 30.428H118.622V33.668H116.774ZM109.214 23.156V20.348H118.622V23.156H109.214ZM120.725 33.5V20.348H123.773V26.012H123.557C123.557 24.668 123.725 23.548 124.061 22.652C124.397 21.756 124.901 21.084 125.573 20.636C126.245 20.172 127.069 19.94 128.045 19.94H128.213C129.205 19.94 130.029 20.172 130.685 20.636C131.357 21.084 131.861 21.756 132.197 22.652C132.549 23.548 132.725 24.668 132.725 26.012H131.789C131.789 24.668 131.957 23.548 132.293 22.652C132.645 21.756 133.157 21.084 133.829 20.636C134.501 20.172 135.325 19.94 136.301 19.94H136.469C137.461 19.94 138.293 20.172 138.965 20.636C139.653 21.084 140.173 21.756 140.525 22.652C140.877 23.548 141.053 24.668 141.053 26.012V33.5H137.213V25.796C137.213 25.076 137.021 24.492 136.637 24.044C136.269 23.596 135.741 23.372 135.053 23.372C134.365 23.372 133.821 23.604 133.421 24.068C133.021 24.516 132.821 25.116 132.821 25.868V33.5H128.957V25.796C128.957 25.076 128.765 24.492 128.381 24.044C128.013 23.596 127.493 23.372 126.821 23.372C126.117 23.372 125.565 23.604 125.165 24.068C124.765 24.516 124.565 25.116 124.565 25.868V33.5H120.725ZM144.47 33.5V20.348H148.31V33.5H144.47ZM142.718 23.18V20.348H148.31V23.18H142.718ZM145.958 19.052C145.238 19.052 144.702 18.868 144.35 18.5C144.014 18.116 143.846 17.636 143.846 17.06C143.846 16.468 144.014 15.988 144.35 15.62C144.702 15.236 145.238 15.044 145.958 15.044C146.678 15.044 147.206 15.236 147.542 15.62C147.894 15.988 148.07 16.468 148.07 17.06C148.07 17.636 147.894 18.116 147.542 18.5C147.206 18.868 146.678 19.052 145.958 19.052ZM151.382 33.5V20.348H154.43V25.988H154.214C154.214 24.644 154.382 23.524 154.718 22.628C155.07 21.732 155.598 21.06 156.302 20.612C157.006 20.164 157.862 19.94 158.87 19.94H159.038C160.574 19.94 161.742 20.444 162.542 21.452C163.358 22.444 163.766 23.956 163.766 25.988V33.5H159.926V25.772C159.926 25.068 159.718 24.492 159.302 24.044C158.886 23.596 158.326 23.372 157.622 23.372C156.902 23.372 156.318 23.604 155.87 24.068C155.438 24.516 155.222 25.108 155.222 25.844V33.5H151.382ZM171.982 33.932C171.054 33.932 170.206 33.764 169.438 33.428C168.686 33.092 168.03 32.628 167.47 32.036C166.91 31.428 166.478 30.716 166.174 29.9C165.886 29.084 165.742 28.204 165.742 27.26V26.708C165.742 25.764 165.878 24.884 166.15 24.068C166.438 23.252 166.846 22.54 167.374 21.932C167.918 21.308 168.566 20.828 169.318 20.492C170.07 20.14 170.91 19.964 171.838 19.964C172.894 19.964 173.806 20.196 174.574 20.66C175.342 21.108 175.942 21.78 176.374 22.676C176.806 23.556 177.046 24.644 177.094 25.94L176.086 25.004V15.98H179.95V33.5H176.902V28.052H177.43C177.382 29.3 177.118 30.364 176.638 31.244C176.174 32.124 175.542 32.796 174.742 33.26C173.942 33.708 173.022 33.932 171.982 33.932ZM172.942 30.716C173.534 30.716 174.07 30.588 174.55 30.332C175.046 30.06 175.438 29.668 175.726 29.156C176.03 28.644 176.182 28.028 176.182 27.308V26.42C176.182 25.716 176.03 25.124 175.726 24.644C175.422 24.164 175.022 23.796 174.526 23.54C174.03 23.284 173.494 23.156 172.918 23.156C172.278 23.156 171.702 23.324 171.19 23.66C170.694 23.98 170.302 24.428 170.014 25.004C169.726 25.564 169.582 26.22 169.582 26.972C169.582 27.74 169.726 28.404 170.014 28.964C170.302 29.524 170.702 29.956 171.214 30.26C171.726 30.564 172.302 30.716 172.942 30.716Z" fill="white"/>
<path d="M182.353 33.5V29.204H186.577V33.5H182.353Z" fill="#A93E17"/>
<defs>
<linearGradient id="paint0_linear_430_790" x1="0.127036" y1="24.9664" x2="50" y2="24.9725" gradientUnits="userSpaceOnUse">
<stop stop-color="#A93E17"/>
<stop offset="1" stop-color="#15399A"/>
</linearGradient>
</defs>
</svg>
